<svg width="80" height="80" viewBox="0 0 80 80" fill="none" xmlns="http://www.w3.org/2000/svg">
<rect width="80" height="80" rx="40" fill="#2A629A"/>
<g clip-path="url(#clip0_578_3966)">
<path d="M45.379 48.1352C47.8323 49.4578 49.759 51.6418 50.5963 54.3378C50.7217 54.7418 50.6483 55.1832 50.3963 55.5245C50.1443 55.8658 49.747 56.0672 49.323 56.0672H30.6577C30.2337 56.0672 29.835 55.8658 29.5843 55.5245C29.3337 55.1832 29.259 54.7432 29.3843 54.3378C30.2243 51.6365 32.1563 49.4498 34.6163 48.1272C35.247 47.7885 36.031 47.9298 36.4897 48.4805L39.0883 51.5978C39.563 52.1672 40.4377 52.1672 40.9123 51.5978L43.5043 48.4872C43.963 47.9365 44.7483 47.7952 45.379 48.1352ZM51.5417 27.5338L42.923 24.4925C41.0723 23.8378 39.035 23.8365 37.1857 24.4845L28.4617 27.5378C27.371 27.9192 26.667 28.9112 26.667 30.0658C26.667 31.2218 27.3723 32.2138 28.463 32.5938L37.139 35.6205C38.0577 35.9405 39.0243 36.1018 39.9897 36.1018C40.955 36.1018 41.9203 35.9405 42.839 35.6205L50.6577 32.8938V38.7325C50.6577 39.4685 51.255 40.0658 51.991 40.0658C52.727 40.0658 53.3243 39.4685 53.3243 38.7325C53.3243 38.7325 53.3297 30.0752 53.3297 30.0632C53.331 28.9098 52.6297 27.9165 51.543 27.5325L51.5417 27.5338ZM47.9897 36.6485L43.7163 38.1392C41.319 38.9752 38.659 38.9752 36.2603 38.1392L31.9897 36.6485V37.3992C31.9897 41.8112 35.5777 45.3992 39.9897 45.3992C44.4017 45.3992 47.9897 41.8112 47.9897 37.3992V36.6472V36.6485Z" fill="white"/>
</g>
<defs>
<clipPath id="clip0_578_3966">
<rect width="32" height="32" fill="white" transform="translate(24 24)"/>
</clipPath>
</defs>
</svg>
