<svg width="21" height="21" viewBox="0 0 21 21" fill="none" xmlns="http://www.w3.org/2000/svg">
<g clip-path="url(#clip0_188_1600)">
<path d="M19.5239 8.14331L16.2914 4.91081C16.1342 4.75901 15.9237 4.67501 15.7052 4.67691C15.4867 4.67881 15.2777 4.76645 15.1232 4.92096C14.9687 5.07546 14.8811 5.28447 14.8792 5.50297C14.8773 5.72147 14.9613 5.93197 15.1131 6.08914L18.3456 9.32164C18.4416 9.41958 18.5255 9.52869 18.5956 9.64664C18.5831 9.64664 18.5731 9.63997 18.5606 9.63997L5.49056 9.66664C5.26955 9.66664 5.05758 9.75444 4.9013 9.91072C4.74502 10.067 4.65723 10.279 4.65723 10.5C4.65723 10.721 4.74502 10.9329 4.9013 11.0892C5.05758 11.2455 5.26955 11.3333 5.49056 11.3333L18.5556 11.3066C18.5789 11.3066 18.5981 11.295 18.6206 11.2933C18.5466 11.4343 18.4529 11.5639 18.3422 11.6783L15.1097 14.9108C15.0301 14.9877 14.9667 15.0796 14.923 15.1813C14.8793 15.283 14.8563 15.3923 14.8554 15.503C14.8544 15.6136 14.8755 15.7234 14.9174 15.8258C14.9593 15.9282 15.0212 16.0212 15.0994 16.0995C15.1776 16.1777 15.2707 16.2396 15.3731 16.2815C15.4755 16.3234 15.5852 16.3445 15.6959 16.3435C15.8065 16.3426 15.9159 16.3196 16.0176 16.2759C16.1192 16.2322 16.2112 16.1687 16.2881 16.0891L19.5206 12.8566C20.1455 12.2315 20.4965 11.3839 20.4965 10.5C20.4965 9.61609 20.1455 8.7684 19.5206 8.14331H19.5239Z" fill="#C70909"/>
<path d="M6.33333 18.8333H4.66667C4.00363 18.8333 3.36774 18.5699 2.8989 18.1011C2.43006 17.6323 2.16667 16.9964 2.16667 16.3333V4.66667C2.16667 4.00363 2.43006 3.36774 2.8989 2.8989C3.36774 2.43006 4.00363 2.16667 4.66667 2.16667H6.33333C6.55435 2.16667 6.76631 2.07887 6.92259 1.92259C7.07887 1.76631 7.16667 1.55435 7.16667 1.33333C7.16667 1.11232 7.07887 0.900358 6.92259 0.744078C6.76631 0.587797 6.55435 0.5 6.33333 0.5H4.66667C3.562 0.501323 2.50296 0.940735 1.72185 1.72185C0.940735 2.50296 0.501323 3.562 0.5 4.66667L0.5 16.3333C0.501323 17.438 0.940735 18.497 1.72185 19.2782C2.50296 20.0593 3.562 20.4987 4.66667 20.5H6.33333C6.55435 20.5 6.76631 20.4122 6.92259 20.2559C7.07887 20.0996 7.16667 19.8877 7.16667 19.6667C7.16667 19.4457 7.07887 19.2337 6.92259 19.0774C6.76631 18.9211 6.55435 18.8333 6.33333 18.8333Z" fill="#C70909"/>
</g>
<defs>
<clipPath id="clip0_188_1600">
<rect width="20" height="20" fill="white" transform="translate(0.5 0.5)"/>
</clipPath>
</defs>
</svg>
