<svg width="22" height="22" viewBox="0 0 22 22" fill="none" xmlns="http://www.w3.org/2000/svg">
<path d="M20.1667 5.24722V1.83355C20.1667 1.32755 19.7569 0.916885 19.25 0.916885C18.7431 0.916885 18.3333 1.32755 18.3333 1.83355V4.00239L13.5639 0.783969C12.0065 -0.266531 9.9935 -0.266531 8.43608 0.783969L2.01942 5.1143C0.755333 5.96772 0 7.38764 0 8.91389V17.4169C0 19.9441 2.05608 22.0002 4.58333 22.0002H7.33333C7.84025 22.0002 8.25 21.5896 8.25 21.0836V13.7502C8.25 13.2451 8.66067 12.8336 9.16667 12.8336H12.8333C13.3393 12.8336 13.75 13.2451 13.75 13.7502V21.0836C13.75 21.5896 14.1597 22.0002 14.6667 22.0002H17.4167C19.9439 22.0002 22 19.9441 22 17.4169V8.91389C22 7.46464 21.318 6.11072 20.1667 5.24722ZM20.1667 17.4169C20.1667 18.9331 18.9328 20.1669 17.4167 20.1669H15.5833V13.7502C15.5833 12.2341 14.3495 11.0002 12.8333 11.0002H9.16667C7.6505 11.0002 6.41667 12.2341 6.41667 13.7502V20.1669H4.58333C3.06717 20.1669 1.83333 18.9331 1.83333 17.4169V8.91389C1.83333 7.99814 2.28617 7.14564 3.04517 6.63414L9.46183 2.3038C10.3968 1.67314 11.6032 1.67314 12.5373 2.3038L18.9539 6.63414C19.7129 7.14564 20.1658 7.99814 20.1658 8.91389L20.1667 17.4169Z" fill="#AEB3B9"/>
</svg>
