<svg width="80" height="80" viewBox="0 0 80 80" fill="none" xmlns="http://www.w3.org/2000/svg">
<rect width="80" height="80" rx="40" fill="#56ab91"/>
<g clip-path="url(#clip0_566_3253)">
<path d="M34.6667 40C30.2547 40 26.6667 36.412 26.6667 32C26.6667 27.588 30.2547 24 34.6667 24C39.0787 24 42.6667 27.588 42.6667 32C42.6667 36.412 39.0787 40 34.6667 40ZM43.6587 56C43.3773 56 43.096 55.9107 42.8587 55.7333C42.4053 55.3947 42.2173 54.8053 42.3867 54.2653L43.6413 50.244L40.472 47.6653C40.0453 47.304 39.8893 46.7147 40.0827 46.1893C40.276 45.664 40.7747 45.316 41.3333 45.316H45.3347L46.7507 41.3427C46.9453 40.8213 47.444 40.4747 48 40.4747C48.556 40.4747 49.0547 40.8213 49.2493 41.3427L50.6653 45.316H54.6667C55.2267 45.316 55.7267 45.6667 55.9187 46.192C56.1107 46.7173 55.9533 47.308 55.5253 47.6693L52.3707 50.2387L53.676 54.212C53.8547 54.7493 53.6733 55.3413 53.224 55.6867C52.7747 56.032 52.156 56.056 51.6827 55.748L48.0107 53.3573L44.4 55.7733C44.176 55.924 43.9173 56 43.6587 56ZM37.2493 56H25.3333C24.5973 56 24 55.4027 24 54.6667C24 48.0507 29.384 42.6667 36 42.6667H37.2493C37.7107 42.6667 38.1387 42.9067 38.3827 43.2987C38.6253 43.6907 38.648 44.1813 38.4427 44.5933C37.7067 46.0733 37.3333 47.6693 37.3333 49.3333C37.3333 50.9973 37.7067 52.592 38.4427 54.0733C38.648 54.4867 38.6253 54.9773 38.3827 55.3693C38.14 55.7613 37.7107 56 37.2493 56Z" fill="white"/>
</g>
<defs>
<clipPath id="clip0_566_3253">
<rect width="32" height="32" fill="white" transform="translate(24 24)"/>
</clipPath>
</defs>
</svg>
