<svg width="18" height="21" viewBox="0 0 18 21" fill="none" xmlns="http://www.w3.org/2000/svg">
<path d="M17.3365 4.24745C17.3374 3.52662 16.899 2.90579 16.2199 2.66579L10.8324 0.764953C9.67736 0.355786 8.4032 0.354953 7.24736 0.75912L1.79403 2.66745C1.11236 2.90662 0.672363 3.52662 0.672363 4.24912C0.672363 4.97079 1.1132 5.59079 1.79486 5.82912L3.99986 6.59829V7.99912C3.99986 10.7566 6.24236 12.9991 8.99986 12.9991C11.7574 12.9991 13.9999 10.7566 13.9999 7.99912V6.59745L15.6665 6.01579V9.66495C15.6665 10.1258 16.0399 10.4983 16.4999 10.4983C16.9599 10.4983 17.3332 10.1258 17.3332 9.66495C17.3332 9.66495 17.3365 4.25495 17.3365 4.24745ZM12.3332 7.99912C12.3332 9.83745 10.8382 11.3325 8.99986 11.3325C7.16153 11.3325 5.66653 9.83745 5.66653 7.99912V7.17912L7.2182 7.72079C7.79236 7.92079 8.3957 8.02079 8.99903 8.02079C9.60236 8.02079 10.2057 7.92079 10.7807 7.72079L12.3332 7.17912V7.99912ZM10.2315 6.14662C9.43653 6.42329 8.56153 6.42329 7.76653 6.14662L2.34403 4.24079L7.79736 2.33329C8.59903 2.05245 9.47986 2.05495 10.2774 2.33662L15.664 4.25162L10.2315 6.14662ZM15.9374 19.4975C16.0299 19.9483 15.7407 20.3891 15.2899 20.4825C15.2332 20.4941 15.1765 20.5 15.1207 20.5C14.734 20.5 14.3865 20.2291 14.3049 19.835C14.0082 18.3966 13.1165 17.1216 11.8582 16.3383L9.63986 18.9666C9.3232 19.3458 8.67653 19.3458 8.35986 18.9666L6.16736 16.3366C4.8832 17.1216 3.99153 18.3966 3.69486 19.835C3.60236 20.2858 3.1607 20.5725 2.70986 20.4825C2.25903 20.3891 1.96903 19.9483 2.06236 19.4975C2.45153 17.6133 3.61736 15.9466 5.25986 14.9241C5.9732 14.4791 6.9132 14.6283 7.44736 15.2683L8.99986 17.1308L10.5515 15.2683C11.0849 14.6275 12.0257 14.4783 12.7382 14.9225C14.3832 15.9466 15.5482 17.6141 15.9374 19.4975Z" fill="#00A65A"/>
</svg>
