<svg width="22" height="22" viewBox="0 0 22 22" fill="none" xmlns="http://www.w3.org/2000/svg">
<path d="M21.9998 12.375C21.9998 8.07858 18.5046 4.58333 14.2082 4.58333H11.9165C11.9165 3.388 11.1502 2.36958 10.0832 1.991V0.916667C10.0832 0.410667 9.67342 0 9.1665 0C8.65959 0 8.24984 0.410667 8.24984 0.916667V1.991C7.18284 2.36958 6.4165 3.388 6.4165 4.58333V11.9167C6.4165 12.4227 6.82625 12.8333 7.33317 12.8333H10.9998C11.5068 12.8333 11.9165 12.4227 11.9165 11.9167V6.41667H14.2082C17.4935 6.41667 20.1665 9.08967 20.1665 12.375C20.1665 15.6603 17.4935 18.3333 14.2082 18.3333H10.0832V16.5H13.7498C14.2568 16.5 14.6665 16.0893 14.6665 15.5833C14.6665 15.0773 14.2568 14.6667 13.7498 14.6667H4.58317C4.07625 14.6667 3.6665 15.0773 3.6665 15.5833C3.6665 16.0893 4.07625 16.5 4.58317 16.5H8.24984V18.3333H1.83317C1.32625 18.3333 0.916504 18.744 0.916504 19.25C0.916504 19.756 1.32625 20.1667 1.83317 20.1667H2.74984V21.0833C2.74984 21.5893 3.15959 22 3.6665 22C4.17342 22 4.58317 21.5893 4.58317 21.0833V20.1667H13.7498V21.0833C13.7498 21.5893 14.1596 22 14.6665 22C15.1734 22 15.5832 21.5893 15.5832 21.0833V20.0448C19.226 19.393 21.9998 16.2021 21.9998 12.375ZM10.0832 11H8.24984V4.58333C8.24984 4.07825 8.6605 3.66667 9.1665 3.66667C9.6725 3.66667 10.0832 4.07825 10.0832 4.58333V11Z" fill="#AEB3B9"/>
</svg>
