<svg width="22" height="22" viewBox="0 0 22 22" fill="none" xmlns="http://www.w3.org/2000/svg">
<g clip-path="url(#clip0_188_529)">
<path d="M20.2189 4.79455L13.4594 1.5743C11.9715 0.685537 10.1195 0.669767 8.61665 1.53305L1.7811 4.79455C1.75545 4.8074 1.72885 4.82115 1.7041 4.8358C0.0819435 5.76333 -0.481205 7.83025 0.446318 9.45241C0.760721 10.0023 1.22319 10.4529 1.7811 10.7529L3.6667 11.6512V16.1429C3.66781 18.1514 4.97471 19.9258 6.89245 20.5227C8.22701 20.9088 9.61082 21.0978 11 21.0837C12.3891 21.0993 13.7729 20.9119 15.1076 20.5273C17.0254 19.9305 18.3323 18.156 18.3334 16.1475V11.6494L20.1667 10.7731V18.3337C20.1667 18.84 20.5771 19.2504 21.0834 19.2504C21.5897 19.2504 22 18.84 22 18.3337V7.3337C22.0061 6.25729 21.1562 5.26291 20.2189 4.79455ZM16.5 16.1475C16.5005 17.3489 15.721 18.4115 14.575 18.7719C13.4129 19.104 12.2086 19.2651 11 19.2504C9.79142 19.2651 8.58714 19.104 7.425 18.7719C6.27898 18.4115 5.49953 17.3489 5.5 16.1475V12.5248L8.5406 13.9732C9.29083 14.4187 10.1477 14.6528 11.0202 14.6506C11.8507 14.6565 12.6672 14.4366 13.3824 14.0144L16.5 12.5248V16.1475ZM19.4333 9.0983L12.5198 12.3983C11.5559 12.9596 10.3611 12.9437 9.41235 12.3571L2.64825 9.13955C1.89428 8.73298 1.61266 7.79218 2.01923 7.03825C2.15673 6.78327 2.3629 6.57191 2.61435 6.42805L9.48475 3.1464C10.449 2.58635 11.6432 2.6022 12.5923 3.18765L19.3518 6.4079C19.8489 6.68393 20.1599 7.20518 20.1667 7.77375C20.1676 8.31232 19.8902 8.81316 19.4333 9.0983Z" fill="#AEB3B9"/>
</g>
<defs>
<clipPath id="clip0_188_529">
<rect width="22" height="22" fill="white"/>
</clipPath>
</defs>
</svg>
