<svg width="22" height="22" viewBox="0 0 22 22" fill="none" xmlns="http://www.w3.org/2000/svg">
<path d="M21.9999 7.77346V18.3335C21.9999 18.5766 21.9033 18.8097 21.7314 18.9816C21.5595 19.1535 21.3264 19.2501 21.0833 19.2501C20.8401 19.2501 20.607 19.1535 20.4351 18.9816C20.2632 18.8097 20.1666 18.5766 20.1666 18.3335V10.7728L13.3833 14.0141C12.668 14.4363 11.8515 14.6562 11.021 14.6503C10.15 14.6516 9.29488 14.4176 8.546 13.9729L1.781 10.7526C1.24923 10.4667 0.803661 10.0436 0.490538 9.52737C0.177415 9.01112 0.00814301 8.42049 0.000286518 7.81675C-0.00756998 7.21302 0.146275 6.61818 0.445858 6.09396C0.745442 5.56974 1.17985 5.13524 1.704 4.83554C1.72875 4.82087 1.75534 4.80712 1.781 4.79429L8.61658 1.53279C9.35456 1.10898 10.1921 0.889408 11.0431 0.896658C11.8941 0.903908 12.7278 1.13772 13.4584 1.57404L20.2188 4.79429C20.7523 5.08944 21.1981 5.52056 21.5109 6.04383C21.8237 6.56709 21.9925 7.16385 21.9999 7.77346ZM11.0201 16.4818C9.84728 16.4844 8.69462 16.177 7.67884 15.5908L3.66659 13.6759V16.1509C3.66713 17.1294 3.98042 18.0822 4.56073 18.8701C5.14104 19.6581 5.95798 20.2399 6.89234 20.5307C8.22731 20.914 9.61111 21.1002 10.9999 21.0835C12.3889 21.099 13.7727 20.9116 15.1075 20.527C16.0419 20.2362 16.8588 19.6544 17.4391 18.8665C18.0194 18.0785 18.3327 17.1258 18.3333 16.1472V13.6805L14.2458 15.633C13.2647 16.1966 12.1516 16.4902 11.0201 16.4836V16.4818Z" fill="white"/>
</svg>
