<svg width="22" height="22" viewBox="0 0 22 22" fill="none" xmlns="http://www.w3.org/2000/svg">
<path d="M17.4167 3.66667H13.75V2.75C13.75 1.23383 12.5162 0 11 0C9.48383 0 8.25 1.23383 8.25 2.75V3.66667H4.58333C2.05608 3.66667 0 5.72275 0 8.25V17.4167C0 19.9439 2.05608 22 4.58333 22H17.4167C19.9439 22 22 19.9439 22 17.4167V8.25C22 5.72275 19.9439 3.66667 17.4167 3.66667ZM10.0833 2.75C10.0833 2.244 10.4949 1.83333 11 1.83333C11.5051 1.83333 11.9167 2.244 11.9167 2.75V4.57875C11.9167 4.57875 11.9167 4.5815 11.9167 4.58333C11.9167 4.58517 11.9167 4.58608 11.9167 4.58792V5.5H10.0824V2.75H10.0833ZM20.1667 17.4167C20.1667 18.9328 18.9328 20.1667 17.4167 20.1667H4.58333C3.06717 20.1667 1.83333 18.9328 1.83333 17.4167V8.25C1.83333 6.73383 3.06717 5.5 4.58333 5.5H8.25C8.25 6.51108 9.07225 7.33333 10.0833 7.33333H11.9167C12.9278 7.33333 13.75 6.51108 13.75 5.5H17.4167C18.9328 5.5 20.1667 6.73383 20.1667 8.25V17.4167ZM8.70833 11.4583C8.70833 10.1924 9.73408 9.16667 11 9.16667C12.2659 9.16667 13.2917 10.1924 13.2917 11.4583C13.2917 12.7242 12.2659 13.75 11 13.75C9.73408 13.75 8.70833 12.7242 8.70833 11.4583ZM15.554 18.1051C15.6805 18.5946 15.3853 19.0951 14.8949 19.2216C14.4018 19.349 13.9049 19.052 13.7784 18.5616C13.475 17.3864 12.2806 16.5 10.9991 16.5C9.71758 16.5 8.52225 17.3864 8.21975 18.5616C8.11342 18.975 7.74125 19.25 7.33242 19.25C7.25725 19.25 7.18025 19.2408 7.10325 19.2216C6.61283 19.0951 6.31767 18.5955 6.44417 18.1051C6.95658 16.1122 8.8715 14.6667 10.9982 14.6667C13.1248 14.6667 15.0398 16.1122 15.5522 18.1051H15.554Z" fill="#AEB3B9"/>
</svg>
