<svg width="7" height="13" viewBox="0 0 7 13" fill="none" xmlns="http://www.w3.org/2000/svg">
<path d="M0.841225 0.908325C0.763118 0.985794 0.701122 1.07796 0.658815 1.17951C0.616508 1.28106 0.594726 1.38998 0.594726 1.49999C0.594726 1.61 0.616508 1.71892 0.658815 1.82047C0.701122 1.92202 0.763118 2.01419 0.841225 2.09166L4.65789 5.90832C4.736 5.98579 4.79799 6.07796 4.8403 6.17951C4.88261 6.28106 4.90439 6.38998 4.90439 6.49999C4.90439 6.61 4.88261 6.71892 4.8403 6.82047C4.79799 6.92202 4.736 7.01419 4.65789 7.09166L0.841225 10.9083C0.763118 10.9858 0.701123 11.078 0.658815 11.1795C0.616508 11.2811 0.594727 11.39 0.594727 11.5C0.594727 11.61 0.616508 11.7189 0.658815 11.8205C0.701123 11.922 0.763118 12.0142 0.841225 12.0917C0.997361 12.2469 1.20857 12.334 1.42873 12.334C1.64888 12.334 1.86009 12.2469 2.01623 12.0917L5.84123 8.26666C6.30939 7.79791 6.57236 7.16249 6.57236 6.49999C6.57236 5.83749 6.30939 5.20208 5.84123 4.73332L2.01622 0.908325C1.86009 0.753116 1.64888 0.665997 1.42872 0.665997C1.20857 0.665997 0.99736 0.753116 0.841225 0.908325Z" fill="#125DAC"/>
</svg>
