<svg width="7" height="13" viewBox="0 0 7 13" fill="none" xmlns="http://www.w3.org/2000/svg">
<path d="M0.841713 0.908325C0.763606 0.985794 0.70161 1.07796 0.659303 1.17951C0.616996 1.28106 0.595214 1.38998 0.595214 1.49999C0.595214 1.61 0.616996 1.71892 0.659303 1.82047C0.701611 1.92202 0.763606 2.01419 0.841713 2.09166L4.65838 5.90832C4.73649 5.98579 4.79848 6.07796 4.84079 6.17951C4.8831 6.28106 4.90488 6.38998 4.90488 6.49999C4.90488 6.61 4.8831 6.71892 4.84079 6.82047C4.79848 6.92202 4.73649 7.01419 4.65838 7.09166L0.841713 10.9083C0.763606 10.9858 0.701611 11.078 0.659304 11.1795C0.616996 11.2811 0.595215 11.39 0.595215 11.5C0.595215 11.61 0.616996 11.7189 0.659304 11.8205C0.701611 11.922 0.763606 12.0142 0.841713 12.0917C0.997849 12.2469 1.20906 12.334 1.42921 12.334C1.64937 12.334 1.86058 12.2469 2.01671 12.0917L5.84171 8.26666C6.30988 7.79791 6.57285 7.16249 6.57285 6.49999C6.57285 5.83749 6.30988 5.20208 5.84171 4.73332L2.01671 0.908325C1.86058 0.753116 1.64937 0.665997 1.42921 0.665997C1.20906 0.665997 0.997848 0.753116 0.841713 0.908325Z" fill="#125DAC"/>
</svg>
