<svg width="80" height="80" viewBox="0 0 80 80" fill="none" xmlns="http://www.w3.org/2000/svg">
<rect width="80" height="80" rx="40" fill="#58A399"/>
<g clip-path="url(#clip0_578_3854)">
<path d="M56 36V49.3333C56 53.0093 53.0093 56 49.3333 56H30.6667C26.9907 56 24 53.0093 24 49.3333V36C24 32.324 26.9907 29.3333 30.6667 29.3333H36V28C36 25.7947 37.7947 24 40 24C42.2053 24 44 25.7947 44 28V29.3333H49.3333C53.0093 29.3333 56 32.324 56 36ZM38.6667 33.3333H41.3347V28C41.3333 27.264 40.7347 26.6667 40 26.6667C39.2653 26.6667 38.6667 27.264 38.6667 28V33.3333ZM36.6667 40.6667C36.6667 42.5053 38.1613 44 40 44C41.8387 44 43.3333 42.5053 43.3333 40.6667C43.3333 38.828 41.8387 37.3333 40 37.3333C38.1613 37.3333 36.6667 38.828 36.6667 40.6667ZM46.624 50.3347C45.8787 47.436 43.0933 45.3333 40 45.3333C36.9067 45.3333 34.12 47.436 33.376 50.3347C33.192 51.048 33.6213 51.7747 34.3347 51.9587C35.0507 52.144 35.7747 51.7107 35.9573 50.9987C36.3973 49.2893 38.1347 48 40 48C41.8653 48 43.6027 49.2893 44.0427 50.9987C44.1973 51.6 44.7387 52 45.3333 52C45.4427 52 45.5547 51.9867 45.6667 51.9587C46.38 51.7747 46.808 51.048 46.624 50.3347Z" fill="white"/>
</g>
<defs>
<clipPath id="clip0_578_3854">
<rect width="32" height="32" fill="white" transform="translate(24 24)"/>
</clipPath>
</defs>
</svg>
