<svg width="80" height="80" viewBox="0 0 80 80" fill="none" xmlns="http://www.w3.org/2000/svg">
<rect width="80" height="80" rx="40" fill="#088395"/>
<g clip-path="url(#clip0_578_3839)">
<path d="M48.9507 39.9998H42.6667C41.194 39.9998 40 38.8058 40 37.3331V31.0318C40.0037 29.7886 39.4292 28.6144 38.4454 27.8544C37.5131 27.1162 36.2907 26.8531 35.1374 27.1424C27.298 29.0884 22.5204 37.0211 24.4665 44.8606C25.8375 50.3838 30.288 54.6103 35.8747 55.6944C43.5066 57.1553 50.9533 52.4103 52.8534 44.8758C53.1439 43.7209 52.8812 42.4966 52.1427 41.5624C51.374 40.5804 50.1979 40.0045 48.9507 39.9998Z" fill="white"/>
<path d="M55.5342 33.9264C55.2299 32.7951 54.7766 31.7091 54.1862 30.6971C52.4106 27.651 49.5101 25.4237 46.1089 24.4944C45.8849 24.434 45.3836 24.3984 45.3836 24.3984C45.2044 24.3985 44.4329 24.3984 43.8222 24.8931C42.9247 25.5994 42.7836 26.4024 42.7702 26.4651C42.7237 26.6617 42.6995 26.8631 42.6982 27.0651V33.3318C42.6982 35.5409 44.4891 37.3318 46.6982 37.3318H52.9902C53.825 37.3342 54.6107 36.9379 55.1049 36.2651C55.4704 35.7723 55.6584 35.1703 55.6382 34.5571C55.6276 34.3436 55.5927 34.132 55.5342 33.9264Z" fill="white"/>
</g>
<defs>
<clipPath id="clip0_578_3839">
<rect width="32" height="32" fill="white" transform="translate(24 24)"/>
</clipPath>
</defs>
</svg>
