<svg width="22" height="22" viewBox="0 0 22 22" fill="none" xmlns="http://www.w3.org/2000/svg">
<path d="M17.413 13.7326C17.413 13.739 17.4167 19.25 17.4167 19.25C17.4167 19.7569 17.0069 20.1667 16.5 20.1667C15.9931 20.1667 15.5833 19.7569 15.5833 19.25V15.4192L12.4364 17.0564C11.5363 17.5248 10.4637 17.5248 9.56358 17.0564L5.2195 14.7959C4.3725 14.355 4.3725 13.1432 5.2195 12.7023L9.56358 10.4417C10.4637 9.97333 11.5363 9.97333 12.4364 10.4417L16.7805 12.7023C17.1985 12.9195 17.4075 13.3247 17.4139 13.7317L17.413 13.7326ZM11 19.2454C10.2648 19.2454 9.52967 19.0428 8.888 18.6386L7.33333 17.6559V19.7771C7.33333 20.4609 7.70917 21.0879 8.316 21.4042C8.90725 21.7122 9.7845 22 11 22C12.2155 22 13.0937 21.7122 13.684 21.4042C14.2908 21.0879 14.6667 20.4609 14.6667 19.7771V17.655L13.1129 18.6367C12.4713 19.0419 11.7361 19.2445 11 19.2445V19.2454ZM22 4.125V16.0417C22 16.8007 21.384 17.4167 20.625 17.4167C19.866 17.4167 19.25 16.8007 19.25 16.0417V6.41667H2.75V15.125C2.75 16.1718 3.45675 17.0848 4.46783 17.3452C5.203 17.534 5.64575 18.2838 5.45692 19.019C5.29742 19.6396 4.73825 20.0512 4.12592 20.0512C4.01225 20.0512 3.89675 20.0374 3.78217 20.0072C1.55558 19.4342 0 17.4268 0 15.125V4.125C0 1.84708 1.84708 0 4.125 0H17.875C20.1529 0 22 1.84708 22 4.125ZM5.5 3.20833C5.5 2.44933 4.884 1.83333 4.125 1.83333C3.366 1.83333 2.75 2.44933 2.75 3.20833C2.75 3.96733 3.366 4.58333 4.125 4.58333C4.884 4.58333 5.5 3.96733 5.5 3.20833ZM10.0833 3.20833C10.0833 2.44933 9.46733 1.83333 8.70833 1.83333C7.94933 1.83333 7.33333 2.44933 7.33333 3.20833C7.33333 3.96733 7.94933 4.58333 8.70833 4.58333C9.46733 4.58333 10.0833 3.96733 10.0833 3.20833Z" fill="white"/>
</svg>
