<svg width="80" height="80" viewBox="0 0 80 80" fill="none" xmlns="http://www.w3.org/2000/svg">
<rect width="80" height="80" rx="40" fill="#2A629A"/>
<path d="M55.9999 35.3076V50.6676C55.9999 51.0212 55.8594 51.3603 55.6094 51.6104C55.3593 51.8604 55.0202 52.0009 54.6665 52.0009C54.3129 52.0009 53.9738 51.8604 53.7237 51.6104C53.4737 51.3603 53.3332 51.0212 53.3332 50.6676V39.6702L43.4665 44.3849C42.4262 44.999 41.2386 45.3188 40.0305 45.3102C38.7637 45.3122 37.5198 44.9717 36.4305 44.3249L26.5905 39.6409C25.8171 39.225 25.169 38.6096 24.7135 37.8587C24.2581 37.1078 24.0118 36.2487 24.0004 35.3705C23.989 34.4924 24.2128 33.6272 24.6485 32.8647C25.0843 32.1022 25.7161 31.4702 26.4785 31.0342C26.5145 31.0129 26.5532 30.9929 26.5905 30.9742L36.5332 26.2302C37.6066 25.6138 38.8249 25.2944 40.0627 25.3049C41.3005 25.3155 42.5131 25.6556 43.5759 26.2902L53.4092 30.9742C54.1851 31.4035 54.8335 32.0306 55.2886 32.7917C55.7436 33.5528 55.989 34.4209 55.9999 35.3076ZM40.0292 47.9742C38.3233 47.978 36.6467 47.5309 35.1692 46.6782L29.3332 43.8929V47.4929C29.334 48.9163 29.7897 50.3021 30.6338 51.4482C31.4779 52.5943 32.6662 53.4406 34.0252 53.8636C35.967 54.4211 37.9798 54.6919 39.9999 54.6676C42.0202 54.6902 44.033 54.4175 45.9745 53.8582C47.3336 53.4352 48.5219 52.5889 49.366 51.4429C50.2101 50.2968 50.6658 48.9109 50.6665 47.4876V43.8996L44.7212 46.7396C43.2941 47.5595 41.6751 47.9864 40.0292 47.9769V47.9742Z" fill="white"/>
</svg>
