<svg width="20" height="21" viewBox="0 0 20 21" fill="none" xmlns="http://www.w3.org/2000/svg">
<g clip-path="url(#clip0_317_3298)">
<path d="M17.5003 3.83333H14.917C14.7236 2.89284 14.2118 2.04779 13.468 1.4406C12.7242 0.833408 11.7938 0.501212 10.8337 0.5L9.16699 0.5C8.20682 0.501212 7.27642 0.833408 6.53262 1.4406C5.78881 2.04779 5.27707 2.89284 5.08366 3.83333H2.50033C2.27931 3.83333 2.06735 3.92113 1.91107 4.07741C1.75479 4.23369 1.66699 4.44565 1.66699 4.66667C1.66699 4.88768 1.75479 5.09964 1.91107 5.25592C2.06735 5.4122 2.27931 5.5 2.50033 5.5H3.33366V16.3333C3.33498 17.438 3.77439 18.497 4.55551 19.2782C5.33662 20.0593 6.39566 20.4987 7.50033 20.5H12.5003C13.605 20.4987 14.664 20.0593 15.4451 19.2782C16.2263 18.497 16.6657 17.438 16.667 16.3333V5.5H17.5003C17.7213 5.5 17.9333 5.4122 18.0896 5.25592C18.2459 5.09964 18.3337 4.88768 18.3337 4.66667C18.3337 4.44565 18.2459 4.23369 18.0896 4.07741C17.9333 3.92113 17.7213 3.83333 17.5003 3.83333ZM9.16699 2.16667H10.8337C11.3506 2.1673 11.8546 2.32781 12.2767 2.6262C12.6987 2.92459 13.0182 3.34624 13.1912 3.83333H6.80949C6.98248 3.34624 7.30191 2.92459 7.72398 2.6262C8.14605 2.32781 8.6501 2.1673 9.16699 2.16667ZM15.0003 16.3333C15.0003 16.9964 14.7369 17.6323 14.2681 18.1011C13.7993 18.5699 13.1634 18.8333 12.5003 18.8333H7.50033C6.83728 18.8333 6.2014 18.5699 5.73256 18.1011C5.26372 17.6323 5.00033 16.9964 5.00033 16.3333V5.5H15.0003V16.3333Z" fill="#C70909"/>
<path d="M8.33333 15.5007C8.55435 15.5007 8.76631 15.4129 8.92259 15.2566C9.07887 15.1003 9.16667 14.8883 9.16667 14.6673V9.66732C9.16667 9.4463 9.07887 9.23434 8.92259 9.07806C8.76631 8.92178 8.55435 8.83398 8.33333 8.83398C8.11232 8.83398 7.90036 8.92178 7.74408 9.07806C7.5878 9.23434 7.5 9.4463 7.5 9.66732V14.6673C7.5 14.8883 7.5878 15.1003 7.74408 15.2566C7.90036 15.4129 8.11232 15.5007 8.33333 15.5007Z" fill="#C70909"/>
<path d="M11.6663 15.5007C11.8874 15.5007 12.0993 15.4129 12.2556 15.2566C12.4119 15.1003 12.4997 14.8883 12.4997 14.6673V9.66732C12.4997 9.4463 12.4119 9.23434 12.2556 9.07806C12.0993 8.92178 11.8874 8.83398 11.6663 8.83398C11.4453 8.83398 11.2334 8.92178 11.0771 9.07806C10.9208 9.23434 10.833 9.4463 10.833 9.66732V14.6673C10.833 14.8883 10.9208 15.1003 11.0771 15.2566C11.2334 15.4129 11.4453 15.5007 11.6663 15.5007Z" fill="#C70909"/>
</g>
<defs>
<clipPath id="clip0_317_3298">
<rect width="20" height="20" fill="white" transform="translate(0 0.5)"/>
</clipPath>
</defs>
</svg>
