<svg width="22" height="22" viewBox="0 0 22 22" fill="none" xmlns="http://www.w3.org/2000/svg">
<path d="M16.3588 13.0323L12.3319 11.2979C11.473 10.9285 10.4876 10.9285 9.62958 11.2998L5.62833 13.0323C4.96558 13.3192 4.554 13.9462 4.55308 14.6676C4.55217 15.389 4.96283 16.0169 5.62375 16.3057L7.33333 17.0518V19.4278C7.33333 20.3207 7.85583 21.1383 8.66617 21.5114C9.37108 21.8359 10.1558 22 11 22C11.8443 22 12.6289 21.835 13.3357 21.5114C14.1442 21.1383 14.6667 20.3197 14.6667 19.4278V17.0445L15.5833 16.6467V19.2509C15.5833 19.7578 15.9931 20.1676 16.5 20.1676C17.0069 20.1676 17.4167 19.7578 17.4167 19.2509C17.4167 19.2509 17.4167 14.7162 17.4167 14.6676C17.4167 13.9553 17.0124 13.3128 16.3588 13.0332V13.0323ZM10.3583 12.9827C10.7543 12.8104 11.2108 12.8104 11.6068 12.9809L15.5943 14.6098C15.5943 14.6227 15.5879 14.6328 15.587 14.6456L11.6132 16.3717C11.2136 16.5449 10.7552 16.5449 10.3556 16.3698L6.35617 14.7153L10.3574 12.9827H10.3583ZM12.8333 19.4269C12.8333 19.6093 12.7316 19.7707 12.5684 19.8458C11.6426 20.2703 10.3565 20.2703 9.4325 19.8458C9.26842 19.7707 9.16667 19.6093 9.16667 19.4269V17.8512L9.62317 18.0501C10.0568 18.2389 10.5215 18.3333 10.9872 18.3333C11.4501 18.3333 11.913 18.2398 12.3448 18.0519L12.8333 17.8393V19.4269ZM6.41667 4.125C6.41667 4.884 5.80067 5.5 5.04167 5.5C4.28267 5.5 3.66667 4.884 3.66667 4.125C3.66667 3.366 4.28267 2.75 5.04167 2.75C5.80067 2.75 6.41667 3.366 6.41667 4.125ZM10.0833 4.125C10.0833 4.884 9.46733 5.5 8.70833 5.5C7.94933 5.5 7.33333 4.884 7.33333 4.125C7.33333 3.366 7.94933 2.75 8.70833 2.75C9.46733 2.75 10.0833 3.366 10.0833 4.125ZM17.4167 0H4.58333C2.05608 0 0 2.05608 0 4.58333V15.5833C0 18.1106 2.05608 20.1667 4.58333 20.1667C5.08933 20.1667 5.5 19.7569 5.5 19.25C5.5 18.7431 5.08933 18.3333 4.58333 18.3333C3.06717 18.3333 1.83333 17.0995 1.83333 15.5833V8.25H20.1667V15.5833C20.1667 16.2534 19.9228 16.8997 19.4801 17.4011C19.1455 17.7806 19.1812 18.3599 19.5617 18.6945C19.9393 19.0291 20.5196 18.9943 20.8551 18.6129C21.5939 17.7769 22 16.6998 22 15.5824V4.58333C22 2.05608 19.9439 0 17.4167 0ZM1.83333 6.41667V4.58333C1.83333 3.06717 3.06717 1.83333 4.58333 1.83333H17.4167C18.9328 1.83333 20.1667 3.06717 20.1667 4.58333V6.41667H1.83333Z" fill="#AEB3B9"/>
</svg>
