<svg width="20" height="22" viewBox="0 0 20 22" fill="none" xmlns="http://www.w3.org/2000/svg">
<path d="M19.1704 4.12357C19.1713 3.33065 18.6892 2.64773 17.9421 2.38373L12.0158 0.292816C10.7453 -0.157268 9.34376 -0.158184 8.07234 0.286399L2.07368 2.38557C1.32384 2.64865 0.839844 3.33065 0.839844 4.1254C0.839844 4.91923 1.32476 5.60123 2.07459 5.8634L4.50009 6.70948V8.2504C4.50009 11.2836 6.96684 13.7504 10.0001 13.7504C13.0333 13.7504 15.5001 11.2836 15.5001 8.2504V6.70857L17.3334 6.06873V10.0828C17.3334 10.5897 17.7441 10.9995 18.2501 10.9995C18.7561 10.9995 19.1668 10.5897 19.1668 10.0828C19.1668 10.0828 19.1704 4.13182 19.1704 4.12357ZM13.6668 8.2504C13.6668 10.2726 12.0223 11.9171 10.0001 11.9171C7.97793 11.9171 6.33343 10.2726 6.33343 8.2504V7.3484L8.04026 7.94423C8.67184 8.16423 9.33551 8.27423 9.99918 8.27423C10.6628 8.27423 11.3265 8.16423 11.959 7.94423L13.6668 7.3484V8.2504ZM11.3549 6.21265C10.4804 6.51698 9.51793 6.51698 8.64343 6.21265L2.67868 4.11623L8.67734 2.01798C9.55918 1.70907 10.5281 1.71182 11.4053 2.02165L17.3307 4.12815L11.3549 6.21265ZM17.6313 20.8986C17.7331 21.3945 17.415 21.8794 16.9191 21.9821C16.8568 21.9949 16.7944 22.0013 16.733 22.0013C16.3077 22.0013 15.9254 21.7034 15.8356 21.2698C15.5093 19.6876 14.5284 18.2851 13.1443 17.4235L10.7041 20.3146C10.3558 20.7317 9.64443 20.7317 9.29609 20.3146L6.88434 17.4216C5.47176 18.2851 4.49093 19.6876 4.16459 21.2698C4.06284 21.7657 3.57701 22.0811 3.08109 21.9821C2.58518 21.8794 2.26618 21.3945 2.36884 20.8986C2.79693 18.826 4.07934 16.9926 5.88609 15.8679C6.67076 15.3784 7.70476 15.5425 8.29234 16.2465L10.0001 18.2952L11.7069 16.2465C12.2936 15.5416 13.3285 15.3775 14.1123 15.8661C15.9218 16.9926 17.2033 18.8269 17.6313 20.8986Z" fill="#AEB3B9"/>
</svg>
