<svg width="20" height="22" viewBox="0 0 20 22" fill="none" xmlns="http://www.w3.org/2000/svg">
<path d="M19.1704 4.12259C19.1713 3.32967 18.6892 2.64676 17.9421 2.38276L12.0158 0.291839C10.7453 -0.158244 9.34376 -0.159161 8.07234 0.285422L2.07368 2.38459C1.32384 2.64767 0.839844 3.32967 0.839844 4.12442C0.839844 4.91826 1.32476 5.60026 2.07459 5.86242L4.50009 6.70851V8.24942C4.50009 11.2827 6.96684 13.7494 10.0001 13.7494C13.0333 13.7494 15.5001 11.2827 15.5001 8.24942V6.70759L17.3334 6.06776V10.0818C17.3334 10.5888 17.7441 10.9985 18.2501 10.9985C18.7561 10.9985 19.1668 10.5888 19.1668 10.0818C19.1668 10.0818 19.1704 4.13084 19.1704 4.12259ZM13.6668 8.24942C13.6668 10.2716 12.0223 11.9161 10.0001 11.9161C7.97793 11.9161 6.33343 10.2716 6.33343 8.24942V7.34742L8.04026 7.94326C8.67184 8.16326 9.33551 8.27326 9.99918 8.27326C10.6628 8.27326 11.3265 8.16326 11.959 7.94326L13.6668 7.34742V8.24942ZM11.3549 6.21167C10.4804 6.51601 9.51793 6.51601 8.64343 6.21167L2.67868 4.11526L8.67734 2.01701C9.55918 1.70809 10.5281 1.71084 11.4053 2.02067L17.3307 4.12717L11.3549 6.21167ZM17.6313 20.8976C17.7331 21.3935 17.415 21.8784 16.9191 21.9811C16.8568 21.9939 16.7944 22.0003 16.733 22.0003C16.3077 22.0003 15.9254 21.7024 15.8356 21.2688C15.5093 19.6867 14.5284 18.2842 13.1443 17.4225L10.7041 20.3137C10.3558 20.7308 9.64443 20.7308 9.29609 20.3137L6.88434 17.4207C5.47176 18.2842 4.49093 19.6867 4.16459 21.2688C4.06284 21.7648 3.57701 22.0801 3.08109 21.9811C2.58518 21.8784 2.26618 21.3935 2.36884 20.8976C2.79693 18.825 4.07934 16.9917 5.88609 15.8669C6.67076 15.3774 7.70476 15.5415 8.29234 16.2455L10.0001 18.2943L11.7069 16.2455C12.2936 15.5406 13.3285 15.3765 14.1123 15.8651C15.9218 16.9917 17.2033 18.8259 17.6313 20.8976Z" fill="#AEB3B9"/>
</svg>
