<svg width="20" height="22" viewBox="0 0 20 22" fill="none" xmlns="http://www.w3.org/2000/svg">
<path d="M13.6978 16.5929C15.3844 17.5023 16.709 19.0038 17.2847 20.8573C17.3708 21.135 17.3204 21.4384 17.1472 21.6731C16.9739 21.9078 16.7008 22.0462 16.4093 22.0462H3.57684C3.28534 22.0462 3.01125 21.9078 2.83892 21.6731C2.66659 21.4384 2.61525 21.1359 2.70142 20.8573C3.27892 19.0001 4.60717 17.4968 6.29842 16.5874C6.732 16.3546 7.271 16.4518 7.58634 16.8303L9.37292 18.9735C9.69925 19.3649 10.3006 19.3649 10.6269 18.9735L12.4089 16.8349C12.7243 16.4563 13.2642 16.3592 13.6978 16.5929ZM17.9346 2.42951L12.0093 0.338598C10.7369 -0.111485 9.33625 -0.112402 8.06484 0.333098L2.06709 2.43227C1.31725 2.69443 0.833252 3.37643 0.833252 4.17026C0.833252 4.96501 1.31817 5.64702 2.068 5.90827L8.03275 7.9891C8.66434 8.2091 9.32892 8.32001 9.99259 8.32001C10.6563 8.32001 11.3199 8.2091 11.9515 7.9891L17.3268 6.11451V10.1286C17.3268 10.6346 17.7375 11.0453 18.2435 11.0453C18.7495 11.0453 19.1602 10.6346 19.1602 10.1286C19.1602 10.1286 19.1638 4.17668 19.1638 4.16843C19.1648 3.37551 18.6826 2.6926 17.9355 2.4286L17.9346 2.42951ZM15.4926 8.69585L12.5547 9.72068C10.9065 10.2954 9.07775 10.2954 7.42867 9.72068L4.49259 8.69585V9.21193C4.49259 12.2452 6.95933 14.7119 9.99259 14.7119C13.0258 14.7119 15.4926 12.2452 15.4926 9.21193V8.69493V8.69585Z" fill="white"/>
</svg>
