<svg width="22" height="22" viewBox="0 0 22 22" fill="none" xmlns="http://www.w3.org/2000/svg">
<path d="M22 8.25V17.4167C22 19.9439 19.9439 22 17.4167 22H4.58333C2.05608 22 0 19.9439 0 17.4167V8.25C0 5.72275 2.05608 3.66667 4.58333 3.66667H8.25V2.75C8.25 1.23383 9.48383 0 11 0C12.5162 0 13.75 1.23383 13.75 2.75V3.66667H17.4167C19.9439 3.66667 22 5.72275 22 8.25ZM10.0833 6.41667H11.9176V2.75C11.9167 2.244 11.5051 1.83333 11 1.83333C10.4949 1.83333 10.0833 2.244 10.0833 2.75V6.41667ZM8.70833 11.4583C8.70833 12.7224 9.73592 13.75 11 13.75C12.2641 13.75 13.2917 12.7224 13.2917 11.4583C13.2917 10.1943 12.2641 9.16667 11 9.16667C9.73592 9.16667 8.70833 10.1943 8.70833 11.4583ZM15.554 18.1051C15.0416 16.1122 13.1267 14.6667 11 14.6667C8.87333 14.6667 6.9575 16.1122 6.446 18.1051C6.3195 18.5955 6.61467 19.0951 7.10508 19.2216C7.59733 19.349 8.09508 19.0511 8.22067 18.5616C8.52317 17.3864 9.71758 16.5 11 16.5C12.2824 16.5 13.4768 17.3864 13.7793 18.5616C13.8857 18.975 14.2578 19.25 14.6667 19.25C14.7418 19.25 14.8188 19.2408 14.8958 19.2216C15.3863 19.0951 15.6805 18.5955 15.554 18.1051Z" fill="white"/>
</svg>
