<svg width="20" height="20" viewBox="0 0 20 20" fill="none" xmlns="http://www.w3.org/2000/svg">
<g clip-path="url(#clip0_317_3328)">
<path d="M9.99967 3.33333C10.9201 3.33333 11.6663 2.58714 11.6663 1.66667C11.6663 0.746192 10.9201 0 9.99967 0C9.0792 0 8.33301 0.746192 8.33301 1.66667C8.33301 2.58714 9.0792 3.33333 9.99967 3.33333Z" fill="#81909F"/>
<path d="M9.99967 11.6673C10.9201 11.6673 11.6663 10.9211 11.6663 10.0007C11.6663 9.08018 10.9201 8.33398 9.99967 8.33398C9.0792 8.33398 8.33301 9.08018 8.33301 10.0007C8.33301 10.9211 9.0792 11.6673 9.99967 11.6673Z" fill="#81909F"/>
<path d="M9.99967 19.9993C10.9201 19.9993 11.6663 19.2532 11.6663 18.3327C11.6663 17.4122 10.9201 16.666 9.99967 16.666C9.0792 16.666 8.33301 17.4122 8.33301 18.3327C8.33301 19.2532 9.0792 19.9993 9.99967 19.9993Z" fill="#81909F"/>
</g>
<defs>
<clipPath id="clip0_317_3328">
<rect width="20" height="20" fill="white"/>
</clipPath>
</defs>
</svg>
