<svg width="22" height="22" viewBox="0 0 22 22" fill="none" xmlns="http://www.w3.org/2000/svg">
<path d="M20.2184 4.79455L13.4589 1.5743C11.971 0.685537 10.119 0.669767 8.61617 1.53305L1.78061 4.79455C1.75496 4.8074 1.72836 4.82115 1.70361 4.8358C0.0814552 5.76333 -0.481693 7.83025 0.44583 9.45241C0.760232 10.0023 1.22271 10.4529 1.78061 10.7529L3.66621 11.6512V16.1429C3.66733 18.1514 4.97422 19.9258 6.89196 20.5227C8.22653 20.9088 9.61033 21.0978 10.9996 21.0837C12.3886 21.0993 13.7724 20.9119 15.1072 20.5273C17.0249 19.9305 18.3318 18.156 18.3329 16.1475V11.6494L20.1663 10.7731V18.3337C20.1663 18.84 20.5766 19.2504 21.0829 19.2504C21.5892 19.2504 21.9996 18.84 21.9996 18.3337V7.3337C22.0057 6.25729 21.1557 5.26291 20.2184 4.79455ZM16.4995 16.1475C16.5 17.3489 15.7205 18.4115 14.5745 18.7719C13.4124 19.104 12.2081 19.2651 10.9995 19.2504C9.79093 19.2651 8.58665 19.104 7.42451 18.7719C6.27849 18.4115 5.49904 17.3489 5.49951 16.1475V12.5248L8.54011 13.9732C9.29035 14.4187 10.1472 14.6528 11.0197 14.6506C11.8502 14.6565 12.6667 14.4366 13.382 14.0144L16.4995 12.5248V16.1475ZM19.4329 9.0983L12.5194 12.3983C11.5554 12.9596 10.3606 12.9437 9.41186 12.3571L2.64776 9.13955C1.89379 8.73298 1.61217 7.79218 2.01874 7.03825C2.15624 6.78327 2.36241 6.57191 2.61386 6.42805L9.48426 3.1464C10.4485 2.58635 11.6427 2.6022 12.5918 3.18765L19.3513 6.4079C19.8484 6.68393 20.1594 7.20518 20.1662 7.77375C20.1671 8.31232 19.8897 8.81316 19.4329 9.0983Z" fill="#AEB3B9"/>
</svg>
