<svg width="22" height="22" viewBox="0 0 22 22" fill="none" xmlns="http://www.w3.org/2000/svg">
<path d="M19.25 7.33333H2.75C1.23108 7.33333 0 6.10225 0 4.58333V3.66667C0 1.64175 1.64175 0 3.66667 0H18.3333C20.3582 0 22 1.64175 22 3.66667V4.58333C22 6.10225 20.7689 7.33333 19.25 7.33333ZM16.5 11C13.4622 11 11 13.4622 11 16.5C11 19.5378 13.4622 22 16.5 22C19.5378 22 22 19.5378 22 16.5C22 13.4622 19.5378 11 16.5 11ZM17.0372 18.4122L15.8519 17.2269C15.6796 17.0546 15.5833 16.8218 15.5833 16.5788V14.7455C15.5833 14.2395 15.994 13.8288 16.5 13.8288C17.006 13.8288 17.4167 14.2395 17.4167 14.7455V16.1993L18.3333 17.116C18.6908 17.4735 18.6908 18.0547 18.3333 18.4122C17.9758 18.7697 17.3947 18.7697 17.0372 18.4122ZM0.916667 8.778V17.4167C0.916667 19.9439 2.97275 22 5.5 22H11.6609C10.1347 20.6562 9.16667 18.6936 9.16667 16.5C9.16667 12.4502 12.4502 9.16667 16.5 9.16667H2.75C2.09733 9.16667 1.4795 9.0255 0.916667 8.778Z" fill="white"/>
</svg>
