<svg width="22" height="22" viewBox="0 0 22 22" fill="none" xmlns="http://www.w3.org/2000/svg">
<path d="M17.875 0H4.125C1.85075 0 0 1.85075 0 4.125V4.58333C0 5.39275 0.358417 6.11417 0.916667 6.61833V17.4167C0.916667 19.9439 2.97275 22 5.5 22H8.25C8.756 22 9.16667 21.5893 9.16667 21.0833C9.16667 20.5773 8.756 20.1667 8.25 20.1667H5.5C3.98383 20.1667 2.75 18.9328 2.75 17.4167V7.33333H19.25V8.25C19.25 8.756 19.6597 9.16667 20.1667 9.16667C20.6736 9.16667 21.0833 8.756 21.0833 8.25V6.61833C21.6416 6.11508 22 5.39275 22 4.58333V4.125C22 1.85075 20.1493 0 17.875 0ZM2.75 5.5C2.24492 5.5 1.83333 5.08842 1.83333 4.58333V4.125C1.83333 2.86183 2.86183 1.83333 4.125 1.83333H17.875C19.1391 1.83333 20.1667 2.86183 20.1667 4.125V4.58333C20.1667 5.08842 19.756 5.5 19.25 5.5H2.75ZM15.5833 9.16667C12.0459 9.16667 9.16667 12.045 9.16667 15.5833C9.16667 19.1217 12.0459 22 15.5833 22C19.1208 22 22 19.1217 22 15.5833C22 12.045 19.1208 9.16667 15.5833 9.16667ZM15.5833 20.1667C13.0561 20.1667 11 18.1106 11 15.5833C11 13.0561 13.0561 11 15.5833 11C18.1106 11 20.1667 13.0561 20.1667 15.5833C20.1667 18.1106 18.1106 20.1667 15.5833 20.1667ZM17.6064 16.3102C17.9648 16.6687 17.9648 17.248 17.6064 17.6064C17.4277 17.7852 17.193 17.875 16.9583 17.875C16.7237 17.875 16.489 17.7852 16.3102 17.6064L14.9352 16.2314C14.7629 16.0591 14.6667 15.8263 14.6667 15.5833V13.75C14.6667 13.244 15.0764 12.8333 15.5833 12.8333C16.0903 12.8333 16.5 13.244 16.5 13.75V15.2038L17.6064 16.3102Z" fill="#AEB3B9"/>
</svg>
