<svg width="113" height="50" viewBox="0 0 113 50" fill="none" xmlns="http://www.w3.org/2000/svg">
<path d="M0.941431 30.7673C0.684474 30.5538 0.466563 30.3729 0.247419 30.1935C0.0915833 30.0659 0.0121185 29.9037 0.0118311 29.7015C0.0115632 29.5127 0.005949 29.324 0.00594252 29.1352C0.00563567 19.7184 0.00518618 10.3016 0.00812725 0.884822C0.00821367 0.609849 -0.043431 0.32373 0.112577 0.0136719C0.229165 0.0641259 0.34203 0.0904679 0.427413 0.153836C0.787422 0.421008 1.1402 0.69799 1.49391 0.973581C7.30225 5.49904 13.1103 10.0248 18.9184 14.5507C18.9929 14.6087 19.0624 14.674 19.141 14.7255C19.4367 14.919 19.5695 15.1946 19.6431 15.5391C19.9978 17.2002 20.3735 18.8568 20.7433 20.5146C20.8867 21.1576 21.0342 21.7997 21.1752 22.4215C21.4207 22.4999 21.4493 22.3236 21.505 22.2111C22.0809 21.0482 22.6497 19.8817 23.2248 18.7184C23.3049 18.5564 23.4088 18.406 23.5234 18.2138C23.718 18.3407 23.8798 18.431 24.0247 18.5432C25.0509 19.3379 26.071 20.1407 27.0986 20.9337C27.8609 21.522 28.2449 22.2912 28.2467 23.2529C28.247 23.4417 28.2476 23.6305 28.2476 23.8193C28.2477 31.4188 28.2478 39.0183 28.2473 46.6178C28.2473 46.901 28.2565 47.1852 28.2365 47.4672C28.09 49.5361 25.7796 50.685 24.0328 49.5589C23.8746 49.4569 23.7262 49.3385 23.5801 49.2194C19.1897 45.6411 14.8027 42.0588 10.4057 38.4887C10.0677 38.2143 9.89399 37.914 9.85012 37.4818C9.65954 35.6041 9.44582 33.7287 9.2367 31.8528C9.20301 31.5507 9.15001 31.2507 9.09507 30.8755C8.906 30.9962 8.75901 31.0617 8.6478 31.1655C7.76817 31.9865 6.89664 32.8163 6.01958 33.6401C5.79862 33.8477 5.59532 34.0801 5.30157 34.2225C5.03752 34.1485 4.85884 33.9535 4.66061 33.7927C3.43255 32.7968 2.2066 31.7982 0.941431 30.7673Z" fill="#49CB86"/>
<path d="M55.8729 13.4147C56.1208 13.3484 56.3762 13.3019 56.6155 13.2126C57.8756 12.742 59.1306 12.2577 60.3901 11.7857C60.6279 11.6966 60.8578 11.5537 61.174 11.6081C61.1963 11.7333 61.2305 11.8637 61.2403 11.9959C61.2524 12.1603 61.2451 12.3261 61.2451 12.4913C61.2452 18.0376 61.247 23.5838 61.2434 29.13C61.2428 30.1038 61.3455 29.9053 60.5645 30.5424C52.9385 36.7625 45.3093 42.9787 37.688 49.2046C36.9938 49.7717 36.2472 50.0846 35.343 49.9663C34.1041 49.8044 33.1268 48.8151 33.018 47.5708C32.977 47.102 32.9952 46.6277 32.993 46.1558C32.9901 45.495 33.0135 44.8334 32.9868 44.1736C32.9691 43.7379 33.1166 43.4093 33.4126 43.0996C34.2929 42.1786 35.1553 41.2404 36.0235 40.3079C36.9239 39.3409 37.824 38.3737 38.7211 37.4037C38.8274 37.2888 38.9894 37.1966 38.937 36.9583C38.7269 36.8583 38.4978 36.9249 38.2747 36.9603C37.0163 37.1601 35.7587 37.3649 34.5007 37.5677C34.1746 37.6202 33.8491 37.6779 33.5217 37.7208C33.3863 37.7386 33.2467 37.7238 33.0683 37.7238C33.041 37.5172 33.0009 37.3375 32.9964 37.1569C32.986 36.7323 32.9922 36.3073 32.9922 35.8825C32.9921 31.9411 32.9921 27.9998 32.9922 24.0584C32.9922 23.846 33.0017 23.6331 32.9911 23.4213C32.9361 22.3116 33.3994 21.4694 34.2779 20.8124C35.1472 20.1625 35.9939 19.4823 36.8502 18.815C44.5944 12.7805 52.3384 6.74591 60.0825 0.711266C60.3245 0.522692 60.5626 0.328967 60.8092 0.14653C60.8983 0.0805777 61.0067 0.0407167 61.0851 0C61.2625 0.0829937 61.2395 0.214816 61.2398 0.324182C61.2437 2.09423 61.2376 3.86434 61.2491 5.63433C61.2512 5.96805 61.1121 6.2148 60.9223 6.46579C59.5135 8.32968 58.1099 10.1975 56.7078 12.0664C56.4108 12.4622 56.1267 12.8677 55.8115 13.3288C55.8152 13.3975 55.844 13.4061 55.8729 13.4147Z" fill="#49CB86"/>
<path d="M93.0987 5.89996C93.7807 5.89996 94.3928 5.89996 94.9484 5.89996C95.1916 6.08798 95.2027 6.30789 95.2523 6.51186C95.7151 8.41393 96.1778 10.316 96.6429 12.2175C96.7014 12.4567 96.7299 12.713 96.9554 12.9541C97.1276 12.6837 97.1672 12.435 97.2256 12.1926C97.6903 10.2668 98.1552 8.34113 98.6239 6.41633C98.6618 6.26048 98.728 6.11152 98.775 5.97678C99.3617 5.87944 101.215 5.87024 101.922 5.95685C102.089 6.12975 102.108 6.37141 102.165 6.59511C102.648 8.49193 103.123 10.3911 103.618 12.2849C103.685 12.5402 103.664 12.8531 103.979 13.0751C104.614 10.6956 105.134 8.32655 105.74 6.00086C106.33 5.86677 108.222 5.86391 108.785 5.9866C108.801 6.02966 108.84 6.0786 108.831 6.11498C107.736 10.3132 106.638 14.5106 105.536 18.7072C105.496 18.863 105.42 19.0096 105.365 19.1471C104.776 19.2353 102.682 19.2415 102.003 19.1582C101.83 18.9954 101.819 18.748 101.763 18.5267C101.281 16.6537 100.808 14.7786 100.329 12.9048C100.283 12.725 100.219 12.5501 100.148 12.3259C99.9554 12.4341 99.9387 12.5905 99.9036 12.7365C99.5283 14.2958 99.1532 15.8551 98.7763 17.4139C98.6382 17.985 98.4954 18.555 98.3503 19.1439C97.7381 19.2803 97.1503 19.2061 96.5695 19.2102C95.9838 19.2144 95.3942 19.2627 94.8323 19.1717C94.6186 18.9757 94.6107 18.7258 94.5519 18.504C93.6933 15.267 92.8409 12.0283 91.9877 8.7899C91.7835 8.01458 91.5793 7.2392 91.3814 6.46227C91.3424 6.30943 91.3323 6.14925 91.3057 5.97119C91.9023 5.83931 92.4684 5.92549 93.0987 5.89996Z" fill="#FCFEFD"/>
<path d="M100.589 32.6519C100.599 29.2333 100.609 25.8855 100.622 22.5377C100.622 22.4984 100.666 22.4593 100.715 22.3764C100.868 22.3623 101.05 22.3312 101.233 22.3309C103.403 22.3277 105.572 22.3189 107.742 22.337C108.233 22.3411 108.733 22.4021 109.212 22.5121C109.643 22.6112 110.073 22.7713 110.465 22.9783C111.484 23.5172 112.114 24.3702 112.311 25.5133C112.445 26.292 112.383 27.0611 112.126 27.8152C111.887 28.5191 111.426 29.0331 110.811 29.4254C110.576 29.5755 110.339 29.7223 110.127 29.8549C110.086 30.1562 110.232 30.3567 110.32 30.5699C110.912 32.0084 111.513 33.4433 112.107 34.8814C112.194 35.0939 112.34 35.2939 112.297 35.5744C112.214 35.5949 112.128 35.6345 112.041 35.6348C110.675 35.6387 109.309 35.6375 107.916 35.6375C107.824 35.453 107.729 35.2947 107.663 35.1251C107.184 33.8951 106.713 32.6623 106.236 31.4315C106.135 31.1702 106.021 30.9135 105.912 30.6502C105.521 30.5381 105.157 30.5354 104.803 30.6417C104.655 30.8783 104.704 31.1199 104.703 31.3509C104.698 32.5065 104.702 33.6621 104.699 34.8176C104.699 35.0498 104.683 35.2819 104.674 35.5298C104.56 35.5708 104.475 35.6274 104.391 35.6278C103.212 35.6323 102.033 35.6297 100.854 35.6261C100.81 35.626 100.765 35.5987 100.673 35.5681C100.648 35.4374 100.596 35.283 100.594 35.1281C100.585 34.3263 100.589 33.5245 100.589 32.6519ZM107.957 27.0078C107.99 26.9194 108.036 26.8334 108.053 26.7421C108.204 25.9483 107.842 25.4052 107.049 25.2419C106.889 25.2087 106.723 25.1911 106.559 25.1887C106.087 25.1821 105.615 25.1806 105.144 25.1914C105.011 25.1944 104.88 25.2465 104.712 25.284C104.7 26.0593 104.654 26.8093 104.746 27.5594C104.75 27.5971 104.805 27.6286 104.866 27.6944C105.471 27.6944 106.107 27.7184 106.74 27.6864C107.197 27.6633 107.615 27.4944 107.957 27.0078Z" fill="#FCFEFD"/>
<path d="M67.0495 11.2672C67.0495 9.4753 67.0495 7.75417 67.0495 6.01492C67.1963 5.97095 67.3043 5.91089 67.4125 5.91049C68.5215 5.90641 69.6305 5.91151 70.7395 5.91667C70.7841 5.91687 70.8285 5.9431 70.9488 5.98125C72.2872 8.06458 73.6686 10.1933 74.9777 12.3519C75.1935 12.3 75.1572 12.166 75.1483 12.0597C74.9977 10.269 75.0716 8.47463 75.0581 6.68177C75.0564 6.45086 75.087 6.21971 75.1015 6.00476C75.652 5.87682 77.5921 5.85868 78.3165 5.96395C78.4711 6.19623 78.4082 6.46336 78.4089 6.71596C78.4146 8.72207 78.4121 10.7282 78.4121 12.7343C78.4121 14.6225 78.4133 16.5106 78.4107 18.3987C78.4104 18.6528 78.447 18.9149 78.3241 19.1468C77.7304 19.2376 75.6821 19.2408 74.9984 19.1454C73.5209 16.7704 72.0199 14.3575 70.5241 11.9529C70.3294 11.9968 70.3485 12.1297 70.3491 12.2383C70.361 14.3382 70.3774 16.438 70.3885 18.5378C70.3896 18.7456 70.4281 18.9662 70.2744 19.1469C69.7279 19.2352 67.8222 19.243 67.1693 19.1591C66.9838 18.9644 67.0535 18.7164 67.0527 18.4893C67.047 16.79 67.0496 15.0907 67.0496 13.3914C67.0495 12.7069 67.0495 12.0225 67.0495 11.2672ZM70.396 11.654C70.3836 11.7035 70.3712 11.7531 70.3588 11.8026C70.3877 11.7721 70.4166 11.7416 70.396 11.654Z" fill="#FCFEFD"/>
<path d="M73.3482 32.1485C73.4852 31.656 73.2841 31.3536 72.9058 31.1812C72.5869 31.0359 72.2442 30.9357 71.9041 30.8452C71.1528 30.6453 70.3878 30.4924 69.6451 30.2655C69.1298 30.108 68.6233 29.8954 68.1465 29.6436C67.061 29.0704 66.4918 28.1182 66.3599 26.9224C66.1664 25.1667 67.0437 23.5956 68.6178 22.7836C69.6528 22.2497 70.7713 22.1097 71.912 22.1113C72.9833 22.1129 74.0262 22.2756 74.9906 22.7856C75.9667 23.3017 76.6583 24.0784 77.1081 25.0788C77.1365 25.1422 77.1486 25.2133 77.1643 25.2817C77.169 25.3025 77.1599 25.3264 77.1572 25.3488C76.7238 25.5972 74.9251 26.1716 73.9006 26.383C73.8056 26.2542 73.6969 26.1085 73.5898 25.9617C73.0369 25.2035 71.8553 24.8614 70.986 25.215C70.7122 25.3264 70.4939 25.4993 70.4624 25.8234C70.4325 26.1308 70.5813 26.4054 70.9241 26.5431C71.2719 26.6828 71.6407 26.773 72.0043 26.8704C73.0056 27.1389 74.013 27.3855 75.0101 27.6687C75.6592 27.853 76.1913 28.2367 76.6477 28.7367C77.9865 30.2031 77.9285 32.8011 76.3836 34.2511C75.769 34.8279 75.0614 35.2442 74.261 35.4828C72.5457 35.9942 70.8145 36.0035 69.1011 35.494C67.473 35.0098 66.406 33.9071 65.8241 32.3239C65.7763 32.1941 65.7587 32.0531 65.7188 31.8813C65.828 31.8237 65.9207 31.7443 66.0246 31.7249C67.0675 31.531 68.1121 31.3457 69.1569 31.1621C69.2456 31.1465 69.3394 31.16 69.4488 31.16C69.5459 31.3305 69.6363 31.4931 69.7304 31.6536C69.9007 31.9441 70.1227 32.1916 70.4207 32.3475C71.1888 32.7491 71.9974 32.7906 72.8245 32.5683C73.0342 32.512 73.2108 32.3946 73.3482 32.1485Z" fill="#FBFEFC"/>
<path d="M81.6499 5.89924C84.6637 5.89941 87.6095 5.89871 90.5624 5.89979C90.7736 6.43413 90.6642 6.93169 90.675 7.41545C90.6859 7.90367 90.7232 8.39773 90.6373 8.87952C90.357 9.02697 90.0934 8.98367 89.84 8.98448C88.4241 8.989 87.0082 8.98452 85.5923 8.98885C85.3384 8.98962 85.076 8.95004 84.7894 9.07963C84.6866 9.63248 84.7331 10.1892 84.7612 10.7282C84.9463 10.9345 85.1712 10.8787 85.375 10.8798C86.5077 10.8857 87.6404 10.8797 88.7731 10.8857C89.0033 10.8869 89.246 10.8309 89.4561 10.9699C89.5738 11.495 89.5856 13.1363 89.4702 13.82C89.2249 13.8334 88.9691 13.8583 88.7132 13.8594C87.6513 13.864 86.5894 13.8587 85.5275 13.8636C85.2955 13.8646 85.0546 13.8185 84.8369 13.9439C84.7047 14.4402 84.6924 15.1976 84.8105 15.9222C85.0303 16.056 85.2942 16.0131 85.5459 16.0139C86.9854 16.0182 88.4249 16.0135 89.8644 16.0186C90.1181 16.0195 90.3863 15.9628 90.6139 16.1355C90.703 16.6985 90.7072 18.4548 90.6172 19.1226C90.3971 19.2633 90.1324 19.2132 89.8821 19.2144C88.6314 19.2202 87.3807 19.2171 86.13 19.2171C84.5962 19.2171 83.0623 19.2191 81.5284 19.2151C81.2725 19.2144 81.0082 19.2583 80.7282 19.1108C80.7112 18.9729 80.6746 18.8145 80.6745 18.656C80.6712 14.6207 80.6711 10.5855 80.6738 6.55024C80.6739 6.36725 80.7053 6.18428 80.7231 5.99049C81.0202 5.85708 81.3059 5.91538 81.6499 5.89924Z" fill="#FBFEFC"/>
<path d="M90.2262 24.5104C90.4643 23.7648 90.6333 23.0553 90.9056 22.4049C91.5207 22.3058 94.5454 22.3003 95.1974 22.3932C95.2442 22.4834 95.3148 22.5811 95.3487 22.6902C96.6779 26.962 98.0306 31.2265 99.3566 35.5324C99.2255 35.5774 99.1421 35.6308 99.0584 35.6312C97.856 35.6369 96.6535 35.6365 95.4511 35.6335C95.384 35.6334 95.3169 35.5986 95.2162 35.5705C94.875 34.7885 94.7704 33.9112 94.4256 33.0888C94.2544 33.0648 94.0954 33.0244 93.936 33.0231C93.1108 33.0165 92.2854 33.0196 91.4602 33.0199C91.3895 33.02 91.3187 33.0232 91.2481 33.0273C91.0348 33.0396 90.903 33.1492 90.8415 33.3551C90.6999 33.8293 90.5552 34.3025 90.4078 34.7749C90.3247 35.0412 90.2337 35.305 90.1368 35.5987C89.0467 35.6783 87.9964 35.6524 86.932 35.6171C86.8197 35.3017 86.9697 35.0649 87.0411 34.8312C87.8459 32.1946 88.6611 29.5611 89.4743 26.9271C89.7176 26.139 89.9635 25.3516 90.2262 24.5104ZM92.4099 27.3858C92.1994 28.2449 91.908 29.0841 91.7333 29.9492C91.9386 30.1384 92.1591 30.0991 92.3593 30.09C92.7685 30.0713 93.1921 30.1771 93.5758 30.0106C93.5898 29.9235 93.6125 29.8746 93.6018 29.8347C93.3363 28.8393 93.0687 27.8443 92.7938 26.8514C92.7814 26.8063 92.6982 26.7807 92.6199 26.7267C92.5518 26.9346 92.4944 27.11 92.4099 27.3858Z" fill="#FCFEFD"/>
<path d="M80.8627 34.8744C80.8581 31.8377 80.854 28.8673 80.8469 25.8968C80.8468 25.8291 80.8134 25.7614 80.7859 25.6571C80.6682 25.6265 80.5387 25.5668 80.4078 25.5633C79.913 25.5505 79.4177 25.5576 78.9227 25.5537C78.6897 25.5518 78.4568 25.542 78.2072 25.5354C77.9941 25.0045 78.1181 24.4843 78.1019 23.9789C78.0855 23.466 78.068 22.949 78.1256 22.407C78.2937 22.3774 78.4273 22.3333 78.5611 22.3331C81.3902 22.3291 84.2194 22.3296 87.0486 22.3317C87.1644 22.3318 87.2802 22.3565 87.4159 22.3721C87.6205 22.877 87.5108 23.3987 87.5193 23.9065C87.5278 24.4186 87.5757 24.9372 87.4685 25.4822C87.3095 25.5083 87.1765 25.5469 87.0428 25.5492C86.5479 25.5575 86.0527 25.5506 85.5576 25.556C85.3264 25.5585 85.0953 25.5758 84.8808 25.5857C84.6959 25.8627 84.7597 26.1295 84.759 26.3802C84.7532 28.3842 84.7557 30.3882 84.7557 32.3922C84.7557 33.241 84.7584 34.0897 84.7536 34.9385C84.7524 35.1442 84.7264 35.3499 84.7121 35.5514C84.6071 35.5876 84.5428 35.6288 84.4782 35.6291C83.3939 35.635 82.3095 35.6373 81.2251 35.6351C81.1347 35.6349 81.0444 35.5974 80.9117 35.5677C80.8952 35.3564 80.879 35.1485 80.8627 34.8744Z" fill="#FCFEFD"/>
<path d="M29.5752 4.08515C30.0795 3.1902 30.3752 2.27016 30.6419 1.339C30.7569 0.937555 30.8706 0.535739 30.9832 0.140137C31.1848 0.172676 31.1865 0.306491 31.2184 0.414487C31.4121 1.0703 31.5853 1.73289 31.8017 2.38107C31.9581 2.84956 32.1483 3.31007 32.3628 3.75521C32.9603 4.99545 33.9062 5.88052 35.1656 6.43571C36.0329 6.81806 36.9374 7.08288 37.8566 7.30157C38.3156 7.41075 38.7779 7.50564 39.2378 7.61089C39.3225 7.63026 39.4029 7.6683 39.5806 7.73182C39.424 7.81175 39.3559 7.86412 39.2796 7.88278C38.4777 8.07882 37.6675 8.24484 36.874 8.46974C36.2859 8.63641 35.7079 8.85161 35.1448 9.09091C33.7771 9.67217 32.8285 10.6836 32.2242 12.0311C31.8464 12.8735 31.5842 13.7541 31.3406 14.6422C31.2749 14.8815 31.2584 15.1468 31.1025 15.3469C30.905 15.3243 30.9227 15.1792 30.8929 15.0795C30.7104 14.4696 30.5498 13.8528 30.3534 13.2475C30.2154 12.8221 30.0472 12.4049 29.8667 11.9953C29.2478 10.5913 28.221 9.60091 26.8066 9.00602C25.9552 8.64795 25.0724 8.39351 24.176 8.18206C23.7398 8.07916 23.3004 7.98953 22.8639 7.88746C22.784 7.86878 22.7114 7.81906 22.5205 7.73017C22.7635 7.65719 22.8877 7.61461 23.0146 7.58264C23.8834 7.36373 24.7574 7.16356 25.6201 6.92291C26.0726 6.79669 26.514 6.62007 26.9458 6.43256C28.0603 5.94863 28.9489 5.20047 29.5752 4.08515Z" fill="#49CB86"/>
<path d="M74.5198 39.0161C74.5855 39.6997 74.4924 40.3333 74.5914 40.9519C74.8415 41.0359 74.9754 40.8612 75.1359 40.7871C75.5397 40.6008 75.9476 40.5695 76.3755 40.6831C76.8188 40.8007 77.1413 41.0564 77.2747 41.4977C77.3556 41.7649 77.414 42.0478 77.4237 42.3258C77.446 42.9613 77.4327 43.5981 77.4324 44.2344C77.4323 44.3047 77.431 44.3768 77.4159 44.4449C77.3877 44.5723 77.2988 44.6747 77.1737 44.6512C77.0767 44.6331 76.9607 44.5496 76.9162 44.4629C76.8669 44.3667 76.8823 44.2338 76.8815 44.1169C76.8784 43.622 76.8836 43.1271 76.8778 42.6322C76.8753 42.4208 76.8713 42.2066 76.8364 41.999C76.7485 41.4769 76.4435 41.2252 75.9253 41.1872C75.337 41.1442 74.4973 41.5921 74.5444 42.4602C74.5712 42.9537 74.5509 43.4498 74.5465 43.9446C74.5447 44.1535 74.5294 44.3623 74.5187 44.6061C74.3605 44.6259 74.2299 44.6422 74.0725 44.6618C74.0381 44.5538 73.9875 44.4688 73.9874 44.3837C73.9842 42.6164 73.9865 40.849 73.9895 39.0817C73.9896 39.0363 74.0109 38.991 74.0231 38.9425C74.1881 38.7779 74.3486 38.7894 74.5198 39.0161Z" fill="#E7F8EF"/>
<path d="M83.3796 43.9161C82.8284 43.0524 82.8281 42.2294 83.4011 41.4427C84.0768 40.515 85.382 40.3411 86.2808 41.0304C87.191 41.7285 87.3796 43.0205 86.7026 43.9204C86.0163 44.8325 84.7328 45.0245 83.8174 44.344C83.6684 44.2333 83.5458 44.087 83.3796 43.9161ZM85.8544 43.9496C85.9903 43.82 86.1494 43.7071 86.2577 43.5575C86.5689 43.1278 86.6428 42.6561 86.4452 42.152C86.1645 41.4357 85.3934 41.0322 84.668 41.2249C83.9675 41.411 83.4551 42.1315 83.5326 42.8213C83.6213 43.6111 84.2866 44.2075 85.0786 44.1737C85.3064 44.164 85.5305 44.0648 85.8544 43.9496Z" fill="#E7F8EF"/>
<path d="M80.2184 40.6147C80.4852 40.6493 80.7009 40.6612 80.9006 40.7239C81.8083 41.0089 82.405 41.9063 82.3277 42.8464C82.247 43.8278 81.4805 44.6272 80.5193 44.7325C79.5194 44.8419 78.6197 44.28 78.3036 43.3484C77.947 42.2978 78.4997 41.1274 79.5411 40.7517C79.7381 40.6807 79.9532 40.6596 80.2184 40.6147ZM81.5467 41.9088C81.4205 41.7699 81.3105 41.6105 81.1653 41.4956C80.536 40.9981 79.6655 41.0921 79.1313 41.7018C78.6277 42.2766 78.638 43.1421 79.1552 43.7001C79.6957 44.2833 80.5892 44.3495 81.2023 43.8517C81.7564 43.4017 81.8834 42.8133 81.5467 41.9088Z" fill="#E7F8EF"/>
<path d="M69.0003 43.9609C68.6909 44.5486 68.2117 44.737 67.6288 44.746C67.1184 44.7539 66.648 44.6301 66.2217 44.3493C66.1655 44.3124 66.1195 44.2522 66.085 44.1933C66.0638 44.1572 66.0577 44.0969 66.0728 44.0583C66.1049 43.9761 66.1552 43.901 66.2193 43.7841C66.3682 43.8458 66.4962 43.8906 66.6166 43.9505C66.9181 44.1007 67.236 44.1795 67.5718 44.1748C67.7122 44.1728 67.8567 44.1636 67.9916 44.1282C68.2282 44.0662 68.4331 43.9503 68.4857 43.6812C68.534 43.4344 68.4004 43.1972 68.1085 43.0716C67.8938 42.9791 67.6597 42.9321 67.4353 42.8617C67.1884 42.7841 66.9344 42.7219 66.6984 42.6188C66.3454 42.4647 66.1492 42.1799 66.132 41.7899C66.1135 41.3738 66.2915 41.0454 66.6551 40.8572C66.8803 40.7406 67.1391 40.6652 67.3911 40.6292C67.8196 40.568 68.239 40.6552 68.628 40.8451C68.7209 40.8904 68.8222 40.9932 68.8446 41.0874C68.8664 41.1786 68.7916 41.2929 68.7465 41.4382C68.5314 41.3762 68.3584 41.3068 68.1789 41.2791C67.9016 41.2364 67.6201 41.205 67.3402 41.2033C67.2069 41.2025 67.0614 41.2605 66.9419 41.3282C66.6398 41.4991 66.6424 41.9062 66.9486 42.0743C67.1118 42.1639 67.2955 42.2201 67.4749 42.2751C67.6776 42.3371 67.8892 42.3703 68.0912 42.4343C68.901 42.6911 69.1171 43.0401 69.0003 43.9609Z" fill="#E7F8EF"/>
<path d="M71.0489 44.6522C69.9895 44.3507 69.3483 43.1429 69.7333 42.0067C69.9165 41.4659 70.2611 41.0648 70.7793 40.829C71.3849 40.5535 72.0074 40.5319 72.631 40.773C72.7384 40.8146 72.8387 40.8818 72.9318 40.9512C73.0318 41.0257 73.048 41.2397 72.9472 41.3335C72.8899 41.3867 72.7765 41.4224 72.702 41.4056C72.5432 41.3698 72.3974 41.2786 72.2392 41.2382C71.347 41.0105 70.5004 41.4461 70.2527 42.2521C69.984 43.1264 70.5242 44.0061 71.4262 44.153C71.8558 44.2229 72.2693 44.1673 72.6571 43.9567C72.7768 43.8917 72.8862 43.9181 72.9636 44.0295C73.0516 44.156 73.0353 44.3268 72.9272 44.413C72.8544 44.4711 72.7776 44.5383 72.6916 44.5627C72.4446 44.6327 72.1941 44.7173 71.9412 44.732C71.6635 44.7481 71.3817 44.6928 71.0489 44.6522Z" fill="#E7F8EF"/>
<path d="M88.4646 44.2825C88.4315 44.4264 88.4228 44.5355 88.3638 44.5915C88.2508 44.6986 88.0552 44.6545 88.0095 44.5274C87.9784 44.4407 87.9489 44.347 87.9488 44.2565C87.946 42.5617 87.9472 40.8669 87.9506 39.1722C87.9507 39.1042 87.9592 39.0162 88.0007 38.9731C88.0589 38.9129 88.154 38.8505 88.2291 38.8552C88.3014 38.8598 88.4182 38.9405 88.4284 39.0021C88.4624 39.2091 88.466 39.4225 88.4663 39.6335C88.4684 41.1636 88.4668 42.6936 88.4646 44.2825Z" fill="#FBFEFC"/>
<path d="M55.8616 13.4027C55.8446 13.4063 55.8155 13.3977 55.8057 13.3775C55.825 13.366 55.8494 13.3905 55.8616 13.4027Z" fill="#41C981"/>
<path d="M70.4203 11.6826C70.4161 11.7417 70.3873 11.7722 70.3584 11.8027C70.3708 11.7532 70.3832 11.7036 70.4203 11.6826Z" fill="#41C981"/>
</svg>
