<svg width="22" height="22" viewBox="0 0 22 22" fill="none" xmlns="http://www.w3.org/2000/svg">
<g clip-path="url(#clip0_188_381)">
<path d="M13.75 2.5355V0.916667C13.75 0.40975 13.3393 0 12.8333 0C12.3273 0 11.9167 0.40975 11.9167 0.916667V1.83333H10.0833V0.916667C10.0833 0.40975 9.67267 0 9.16667 0C8.66067 0 8.25 0.40975 8.25 0.916667V1.83333H6.41667V0.916667C6.41667 0.40975 6.006 0 5.5 0C4.994 0 4.58333 0.40975 4.58333 0.916667V1.83333H2.75V0.916667C2.75 0.40975 2.33933 0 1.83333 0C1.32733 0 0.916667 0.40975 0.916667 0.916667V2.5355C0.35475 3.03967 0 3.77025 0 4.58333V17.4167C0 19.9439 2.05608 22 4.58333 22H10.0833C12.6106 22 14.6667 19.9439 14.6667 17.4167V4.58333C14.6667 3.77117 14.3119 3.03967 13.75 2.5355ZM12.8333 17.4167C12.8333 18.9328 11.5995 20.1667 10.0833 20.1667H4.58333C3.06717 20.1667 1.83333 18.9328 1.83333 17.4167V4.58333C1.83333 4.07733 2.24492 3.66667 2.75 3.66667H11.9167C12.4218 3.66667 12.8333 4.07733 12.8333 4.58333V17.4167ZM11 7.33333C11 7.84025 10.5893 8.25 10.0833 8.25H4.58333C4.07733 8.25 3.66667 7.84025 3.66667 7.33333C3.66667 6.82642 4.07733 6.41667 4.58333 6.41667H10.0833C10.5893 6.41667 11 6.82642 11 7.33333ZM11 11C11 11.5069 10.5893 11.9167 10.0833 11.9167H4.58333C4.07733 11.9167 3.66667 11.5069 3.66667 11C3.66667 10.4931 4.07733 10.0833 4.58333 10.0833H10.0833C10.5893 10.0833 11 10.4931 11 11ZM8.25 14.6667C8.25 15.1736 7.83933 15.5833 7.33333 15.5833H4.58333C4.07733 15.5833 3.66667 15.1736 3.66667 14.6667C3.66667 14.1597 4.07733 13.75 4.58333 13.75H7.33333C7.83933 13.75 8.25 14.1597 8.25 14.6667ZM19.25 0C17.7338 0 16.5 1.23383 16.5 2.75V18.1115C16.5 19.0777 16.8914 20.0218 17.5743 20.7038L18.6019 21.7314C18.7807 21.9102 19.0153 22 19.25 22C19.4847 22 19.7193 21.9102 19.8981 21.7314L20.9257 20.7038C21.6086 20.0218 22 19.0777 22 18.1115V2.75C22 1.23383 20.7662 0 19.25 0ZM20.1667 18.1115C20.1667 18.5937 19.9714 19.0667 19.6295 19.4077L19.25 19.7872L18.8705 19.4077C18.5286 19.0667 18.3333 18.5937 18.3333 18.1115V2.75C18.3333 2.244 18.7449 1.83333 19.25 1.83333C19.7551 1.83333 20.1667 2.244 20.1667 2.75V18.1115Z" fill="#AEB3B9"/>
</g>
<defs>
<clipPath id="clip0_188_381">
<rect width="22" height="22" fill="white"/>
</clipPath>
</defs>
</svg>
