<svg width="80" height="80" viewBox="0 0 80 80" fill="none" xmlns="http://www.w3.org/2000/svg">
<rect width="80" height="80" rx="40" fill="#088395"/>
<g clip-path="url(#clip0_566_3278)">
<path d="M49.328 43.9747C49.328 43.984 49.3333 52 49.3333 52C49.3333 52.7373 48.7373 53.3333 48 53.3333C47.2627 53.3333 46.6667 52.7373 46.6667 52V46.428L42.0893 48.8093C40.78 49.4907 39.22 49.4907 37.9107 48.8093L31.592 45.5213C30.36 44.88 30.36 43.1173 31.592 42.476L37.9107 39.188C39.22 38.5067 40.78 38.5067 42.0893 39.188L48.408 42.476C49.016 42.792 49.32 43.3813 49.3293 43.9733L49.328 43.9747ZM40 51.9933C38.9307 51.9933 37.8613 51.6987 36.928 51.1107L34.6667 49.6813V52.7667C34.6667 53.7613 35.2133 54.6733 36.096 55.1333C36.956 55.5813 38.232 56 40 56C41.768 56 43.0453 55.5813 43.904 55.1333C44.7867 54.6733 45.3333 53.7613 45.3333 52.7667V49.68L43.0733 51.108C42.14 51.6973 41.0707 51.992 40 51.992V51.9933ZM56 30V47.3333C56 48.4373 55.104 49.3333 54 49.3333C52.896 49.3333 52 48.4373 52 47.3333V33.3333H28V46C28 47.5227 29.028 48.8507 30.4987 49.2293C31.568 49.504 32.212 50.5947 31.9373 51.664C31.7053 52.5667 30.892 53.1653 30.0013 53.1653C29.836 53.1653 29.668 53.1453 29.5013 53.1013C26.2627 52.268 24 49.348 24 46V30C24 26.6867 26.6867 24 30 24H50C53.3133 24 56 26.6867 56 30ZM32 28.6667C32 27.5627 31.104 26.6667 30 26.6667C28.896 26.6667 28 27.5627 28 28.6667C28 29.7707 28.896 30.6667 30 30.6667C31.104 30.6667 32 29.7707 32 28.6667ZM38.6667 28.6667C38.6667 27.5627 37.7707 26.6667 36.6667 26.6667C35.5627 26.6667 34.6667 27.5627 34.6667 28.6667C34.6667 29.7707 35.5627 30.6667 36.6667 30.6667C37.7707 30.6667 38.6667 29.7707 38.6667 28.6667Z" fill="white"/>
</g>
<defs>
<clipPath id="clip0_566_3278">
<rect width="32" height="32" fill="white" transform="translate(24 24)"/>
</clipPath>
</defs>
</svg>
