<svg width="21" height="21" viewBox="0 0 21 21" fill="none" xmlns="http://www.w3.org/2000/svg">
<path d="M10.5 18C10.5 18.4608 10.1267 18.8333 9.66667 18.8333H4.66667C2.36917 18.8333 0.5 16.9642 0.5 14.6667V4.66667C0.5 2.36917 2.36917 0.5 4.66667 0.5H14.6667C16.9642 0.5 18.8333 2.36917 18.8333 4.66667V9.66667C18.8333 10.1275 18.46 10.5 18 10.5C17.54 10.5 17.1667 10.1275 17.1667 9.66667V4.66667C17.1667 3.28833 16.045 2.16667 14.6667 2.16667H4.66667C3.28833 2.16667 2.16667 3.28833 2.16667 4.66667V10.4658L4.50667 8.12583C5.78333 6.84833 7.86083 6.84833 9.13833 8.12583L13.5892 12.5767C13.915 12.9025 13.915 13.4292 13.5892 13.755C13.4267 13.9175 13.2133 13.9992 13 13.9992C12.7867 13.9992 12.5733 13.9175 12.4108 13.755L7.96 9.30417C7.33333 8.67833 6.31333 8.6775 5.685 9.30417L2.16667 12.8225V14.6667C2.16667 16.045 3.28833 17.1667 4.66667 17.1667H9.66667C10.1267 17.1667 10.5 17.5392 10.5 18ZM13 3.41667C14.3783 3.41667 15.5 4.53833 15.5 5.91667C15.5 7.295 14.3783 8.41667 13 8.41667C11.6217 8.41667 10.5 7.295 10.5 5.91667C10.5 4.53833 11.6217 3.41667 13 3.41667ZM13 5.08333C12.5408 5.08333 12.1667 5.45667 12.1667 5.91667C12.1667 6.37667 12.5408 6.75 13 6.75C13.4592 6.75 13.8333 6.37667 13.8333 5.91667C13.8333 5.45667 13.4592 5.08333 13 5.08333ZM19.6667 15.5H17.1667V13C17.1667 12.5392 16.7933 12.1667 16.3333 12.1667C15.8733 12.1667 15.5 12.5392 15.5 13V15.5H13C12.54 15.5 12.1667 15.8725 12.1667 16.3333C12.1667 16.7942 12.54 17.1667 13 17.1667H15.5V19.6667C15.5 20.1275 15.8733 20.5 16.3333 20.5C16.7933 20.5 17.1667 20.1275 17.1667 19.6667V17.1667H19.6667C20.1267 17.1667 20.5 16.7942 20.5 16.3333C20.5 15.8725 20.1267 15.5 19.6667 15.5Z" fill="#125DAC"/>
</svg>
