<svg width="20" height="20" viewBox="0 0 20 20" fill="none" xmlns="http://www.w3.org/2000/svg">
<g clip-path="url(#clip0_314_3125)">
<path d="M9.99967 3.33333C10.9201 3.33333 11.6663 2.58714 11.6663 1.66667C11.6663 0.746192 10.9201 0 9.99967 0C9.0792 0 8.33301 0.746192 8.33301 1.66667C8.33301 2.58714 9.0792 3.33333 9.99967 3.33333Z" fill="#81909F"/>
<path d="M9.99967 11.6663C10.9201 11.6663 11.6663 10.9201 11.6663 9.99967C11.6663 9.0792 10.9201 8.33301 9.99967 8.33301C9.0792 8.33301 8.33301 9.0792 8.33301 9.99967C8.33301 10.9201 9.0792 11.6663 9.99967 11.6663Z" fill="#81909F"/>
<path d="M9.99967 20.0003C10.9201 20.0003 11.6663 19.2541 11.6663 18.3337C11.6663 17.4132 10.9201 16.667 9.99967 16.667C9.0792 16.667 8.33301 17.4132 8.33301 18.3337C8.33301 19.2541 9.0792 20.0003 9.99967 20.0003Z" fill="#81909F"/>
</g>
<defs>
<clipPath id="clip0_314_3125">
<rect width="20" height="20" fill="white"/>
</clipPath>
</defs>
</svg>
