<svg width="18" height="21" viewBox="0 0 18 21" fill="none" xmlns="http://www.w3.org/2000/svg">
<path d="M17.3365 4.24831C17.3374 3.52747 16.899 2.90664 16.2199 2.66664L10.8324 0.765808C9.67736 0.356641 8.4032 0.355808 7.24736 0.759974L1.79403 2.66831C1.11236 2.90747 0.672363 3.52747 0.672363 4.24997C0.672363 4.97164 1.1132 5.59164 1.79486 5.82997L3.99986 6.59914V7.99997C3.99986 10.7575 6.24236 13 8.99986 13C11.7574 13 13.9999 10.7575 13.9999 7.99997V6.59831L15.6665 6.01664V9.66581C15.6665 10.1266 16.0399 10.4991 16.4999 10.4991C16.9599 10.4991 17.3332 10.1266 17.3332 9.66581C17.3332 9.66581 17.3365 4.25581 17.3365 4.24831ZM12.3332 7.99997C12.3332 9.83831 10.8382 11.3333 8.99986 11.3333C7.16153 11.3333 5.66653 9.83831 5.66653 7.99997V7.17997L7.2182 7.72164C7.79236 7.92164 8.3957 8.02164 8.99903 8.02164C9.60236 8.02164 10.2057 7.92164 10.7807 7.72164L12.3332 7.17997V7.99997ZM10.2315 6.14747C9.43653 6.42414 8.56153 6.42414 7.76653 6.14747L2.34403 4.24164L7.79736 2.33414C8.59903 2.05331 9.47986 2.05581 10.2774 2.33747L15.664 4.25247L10.2315 6.14747ZM15.9374 19.4983C16.0299 19.9491 15.7407 20.39 15.2899 20.4833C15.2332 20.495 15.1765 20.5008 15.1207 20.5008C14.734 20.5008 14.3865 20.23 14.3049 19.8358C14.0082 18.3975 13.1165 17.1225 11.8582 16.3391L9.63986 18.9675C9.3232 19.3466 8.67653 19.3466 8.35986 18.9675L6.16736 16.3375C4.8832 17.1225 3.99153 18.3975 3.69486 19.8358C3.60236 20.2866 3.1607 20.5733 2.70986 20.4833C2.25903 20.39 1.96903 19.9491 2.06236 19.4983C2.45153 17.6141 3.61736 15.9475 5.25986 14.925C5.9732 14.48 6.9132 14.6291 7.44736 15.2691L8.99986 17.1316L10.5515 15.2691C11.0849 14.6283 12.0257 14.4791 12.7382 14.9233C14.3832 15.9475 15.5482 17.615 15.9374 19.4983Z" fill="#00A65A"/>
</svg>
