<svg width="80" height="80" viewBox="0 0 80 80" fill="none" xmlns="http://www.w3.org/2000/svg">
<rect width="80" height="80" rx="40" fill="#81689D"/>
<g clip-path="url(#clip0_578_3956)">
<path d="M52 34.6667H28C25.7907 34.6667 24 32.876 24 30.6667V29.3333C24 26.388 26.388 24 29.3333 24H50.6667C53.612 24 56 26.388 56 29.3333V30.6667C56 32.876 54.2093 34.6667 52 34.6667ZM48 40C43.5813 40 40 43.5813 40 48C40 52.4187 43.5813 56 48 56C52.4187 56 56 52.4187 56 48C56 43.5813 52.4187 40 48 40ZM48.7813 50.7813L47.0573 49.0573C46.8067 48.8067 46.6667 48.468 46.6667 48.1147V45.448C46.6667 44.712 47.264 44.1147 48 44.1147C48.736 44.1147 49.3333 44.712 49.3333 45.448V47.5627L50.6667 48.896C51.1867 49.416 51.1867 50.2613 50.6667 50.7813C50.1467 51.3013 49.3013 51.3013 48.7813 50.7813ZM25.3333 36.768V49.3333C25.3333 53.0093 28.324 56 32 56H40.9613C38.7413 54.0453 37.3333 51.1907 37.3333 48C37.3333 42.1093 42.1093 37.3333 48 37.3333H28C27.0507 37.3333 26.152 37.128 25.3333 36.768Z" fill="white"/>
</g>
<defs>
<clipPath id="clip0_578_3956">
<rect width="32" height="32" fill="white" transform="translate(24 24)"/>
</clipPath>
</defs>
</svg>
