<svg width="22" height="22" viewBox="0 0 22 22" fill="none" xmlns="http://www.w3.org/2000/svg">
<g clip-path="url(#clip0_5_600)">
<path d="M14.6667 1.991V0.916667C14.6667 0.40975 14.256 0 13.75 0C13.244 0 12.8333 0.40975 12.8333 0.916667V1.83333H11V0.916667C11 0.40975 10.5893 0 10.0833 0C9.57733 0 9.16667 0.40975 9.16667 0.916667V1.83333H7.33333V0.916667C7.33333 0.40975 6.92267 0 6.41667 0C5.91067 0 5.5 0.40975 5.5 0.916667V1.83333H3.66667V0.916667C3.66667 0.40975 3.256 0 2.75 0C2.244 0 1.83333 0.40975 1.83333 0.916667V1.991C0.766333 2.36958 0 3.388 0 4.58333V17.4167C0 19.9439 2.05608 22 4.58333 22H11.9167C14.4439 22 16.5 19.9439 16.5 17.4167V4.58333C16.5 3.388 15.7337 2.36958 14.6667 1.991ZM9.16667 15.5833H4.58333C4.07733 15.5833 3.66667 15.1736 3.66667 14.6667C3.66667 14.1597 4.07733 13.75 4.58333 13.75H9.16667C9.67267 13.75 10.0833 14.1597 10.0833 14.6667C10.0833 15.1736 9.67267 15.5833 9.16667 15.5833ZM11.9167 11.9167H4.58333C4.07733 11.9167 3.66667 11.5069 3.66667 11C3.66667 10.4931 4.07733 10.0833 4.58333 10.0833H11.9167C12.4227 10.0833 12.8333 10.4931 12.8333 11C12.8333 11.5069 12.4227 11.9167 11.9167 11.9167ZM11.9167 8.25H4.58333C4.07733 8.25 3.66667 7.84025 3.66667 7.33333C3.66667 6.82642 4.07733 6.41667 4.58333 6.41667H11.9167C12.4227 6.41667 12.8333 6.82642 12.8333 7.33333C12.8333 7.84025 12.4227 8.25 11.9167 8.25ZM20.1667 22L19.1391 20.9724C18.623 20.4563 18.3333 19.7569 18.3333 19.0282V1.83333C18.3333 0.820417 19.1537 0 20.1667 0C21.1796 0 22 0.820417 22 1.83333V19.0273C22 19.7569 21.7103 20.4563 21.1943 20.9715L20.1667 22Z" fill="white"/>
</g>
<defs>
<clipPath id="clip0_5_600">
<rect width="22" height="22" fill="white"/>
</clipPath>
</defs>
</svg>
