<svg width="80" height="80" viewBox="0 0 80 80" fill="none" xmlns="http://www.w3.org/2000/svg">
<rect width="80" height="80" rx="40" fill="#2A629A"/>
<g clip-path="url(#clip0_566_3256)">
<path d="M45.3333 26.896V25.3333C45.3333 24.596 44.736 24 44 24C43.264 24 42.6667 24.596 42.6667 25.3333V26.6667H40V25.3333C40 24.596 39.4027 24 38.6667 24C37.9307 24 37.3333 24.596 37.3333 25.3333V26.6667H34.6667V25.3333C34.6667 24.596 34.0693 24 33.3333 24C32.5973 24 32 24.596 32 25.3333V26.6667H29.3333V25.3333C29.3333 24.596 28.736 24 28 24C27.264 24 26.6667 24.596 26.6667 25.3333V26.896C25.1147 27.4467 24 28.928 24 30.6667V49.3333C24 53.0093 26.9907 56 30.6667 56H41.3333C45.0093 56 48 53.0093 48 49.3333V30.6667C48 28.928 46.8853 27.4467 45.3333 26.896ZM37.3333 46.6667H30.6667C29.9307 46.6667 29.3333 46.0707 29.3333 45.3333C29.3333 44.596 29.9307 44 30.6667 44H37.3333C38.0693 44 38.6667 44.596 38.6667 45.3333C38.6667 46.0707 38.0693 46.6667 37.3333 46.6667ZM41.3333 41.3333H30.6667C29.9307 41.3333 29.3333 40.7373 29.3333 40C29.3333 39.2627 29.9307 38.6667 30.6667 38.6667H41.3333C42.0693 38.6667 42.6667 39.2627 42.6667 40C42.6667 40.7373 42.0693 41.3333 41.3333 41.3333ZM41.3333 36H30.6667C29.9307 36 29.3333 35.404 29.3333 34.6667C29.3333 33.9293 29.9307 33.3333 30.6667 33.3333H41.3333C42.0693 33.3333 42.6667 33.9293 42.6667 34.6667C42.6667 35.404 42.0693 36 41.3333 36ZM53.3333 56L51.8387 54.5053C51.088 53.7547 50.6667 52.7373 50.6667 51.6773V26.6667C50.6667 25.1933 51.86 24 53.3333 24C54.8067 24 56 25.1933 56 26.6667V51.676C56 52.7373 55.5787 53.7547 54.828 54.504L53.3333 56Z" fill="white"/>
</g>
<defs>
<clipPath id="clip0_566_3256">
<rect width="32" height="32" fill="white" transform="translate(24 24)"/>
</clipPath>
</defs>
</svg>
