<svg width="22" height="22" viewBox="0 0 22 22" fill="none" xmlns="http://www.w3.org/2000/svg">
<path d="M7.33333 11C4.30008 11 1.83333 8.53325 1.83333 5.5C1.83333 2.46675 4.30008 0 7.33333 0C10.3666 0 12.8333 2.46675 12.8333 5.5C12.8333 8.53325 10.3666 11 7.33333 11ZM13.5153 22C13.3219 22 13.1285 21.9386 12.9653 21.8167C12.6537 21.5838 12.5244 21.1787 12.6408 20.8074L13.5034 18.0428L11.3245 16.2699C11.0312 16.0215 10.9239 15.6163 11.0568 15.2552C11.1898 14.894 11.5326 14.6548 11.9167 14.6548H14.6676L15.6411 11.9231C15.7749 11.5647 16.1178 11.3263 16.5 11.3263C16.8822 11.3263 17.2251 11.5647 17.3589 11.9231L18.3324 14.6548H21.0833C21.4683 14.6548 21.8121 14.8958 21.9441 15.257C22.0761 15.6182 21.9679 16.0243 21.6737 16.2727L19.5048 18.0391L20.4023 20.7708C20.5251 21.1402 20.4004 21.5472 20.0915 21.7846C19.7826 22.022 19.3573 22.0385 19.0318 21.8268L16.5073 20.1832L14.025 21.8442C13.871 21.9478 13.6932 22 13.5153 22ZM9.10892 22H0.916667C0.410667 22 0 21.5893 0 21.0833C0 16.5348 3.7015 12.8333 8.25 12.8333H9.10892C9.42608 12.8333 9.72033 12.9983 9.88808 13.2678C10.0549 13.5373 10.0705 13.8747 9.92933 14.1579C9.42333 15.1754 9.16667 16.2727 9.16667 17.4167C9.16667 18.5607 9.42333 19.657 9.92933 20.6754C10.0705 20.9596 10.0549 21.2969 9.88808 21.5664C9.72125 21.8359 9.42608 22 9.10892 22Z" fill="white"/>
</svg>
