<svg width="22" height="22" viewBox="0 0 22 22" fill="none" xmlns="http://www.w3.org/2000/svg">
<path d="M7.33333 11C10.3666 11 12.8333 8.53325 12.8333 5.5C12.8333 2.46675 10.3666 0 7.33333 0C4.30008 0 1.83333 2.46675 1.83333 5.5C1.83333 8.53325 4.30008 11 7.33333 11ZM7.33333 1.83333C9.3555 1.83333 11 3.47783 11 5.5C11 7.52217 9.3555 9.16667 7.33333 9.16667C5.31117 9.16667 3.66667 7.52217 3.66667 5.5C3.66667 3.47783 5.31117 1.83333 7.33333 1.83333ZM9.16667 13.75C9.16667 14.256 8.756 14.6667 8.25 14.6667C4.71167 14.6667 1.83333 17.545 1.83333 21.0833C1.83333 21.5893 1.42267 22 0.916667 22C0.410667 22 0 21.5893 0 21.0833C0 16.5348 3.7015 12.8333 8.25 12.8333C8.756 12.8333 9.16667 13.244 9.16667 13.75ZM21.6737 16.2727L19.5048 18.0391L20.4023 20.7708C20.5251 21.1402 20.4004 21.5472 20.0915 21.7846C19.7826 22.022 19.3573 22.0385 19.0318 21.8268L16.5073 20.1832L14.025 21.8442C13.871 21.9478 13.6932 21.9991 13.5153 21.9991C13.3219 21.9991 13.1285 21.9377 12.9653 21.8158C12.6537 21.5829 12.5244 21.1777 12.6408 20.8065L13.5034 18.0418L11.3245 16.269C11.0312 16.0206 10.9239 15.6154 11.0568 15.2543C11.1898 14.8931 11.5326 14.6538 11.9167 14.6538H14.6676L15.6411 11.9222C15.7749 11.5638 16.1178 11.3254 16.5 11.3254C16.8822 11.3254 17.226 11.5638 17.3589 11.9222L18.3324 14.6538H21.0833C21.4683 14.6538 21.8121 14.8949 21.9441 15.2561C22.0761 15.6173 21.9679 16.0233 21.6737 16.2717V16.2727Z" fill="#AEB3B9"/>
</svg>
