<svg width="80" height="80" viewBox="0 0 80 80" fill="none" xmlns="http://www.w3.org/2000/svg">
<rect width="80" height="80" rx="40" fill="#81689D"/>
<g clip-path="url(#clip0_578_3976)">
<path d="M55.9997 42C55.9997 35.7507 50.9157 30.6667 44.6663 30.6667H41.333C41.333 28.9307 40.2143 27.464 38.6663 26.912V25.3333C38.6663 24.5973 38.0703 24 37.333 24C36.5957 24 35.9997 24.5973 35.9997 25.3333V26.912C34.4517 27.464 33.333 28.9307 33.333 30.6667V41.3333C33.333 42.0693 33.929 42.6667 34.6663 42.6667H39.9997C40.737 42.6667 41.333 42.0693 41.333 41.3333V33.3333H44.6663C49.445 33.3333 53.333 37.2213 53.333 42C53.333 46.7787 49.445 50.6667 44.6663 50.6667H38.6663V48H43.9997C44.737 48 45.333 47.4027 45.333 46.6667C45.333 45.9307 44.737 45.3333 43.9997 45.3333H30.6663C29.929 45.3333 29.333 45.9307 29.333 46.6667C29.333 47.4027 29.929 48 30.6663 48H35.9997V50.6667H26.6663C25.929 50.6667 25.333 51.264 25.333 52C25.333 52.736 25.929 53.3333 26.6663 53.3333H27.9997V54.6667C27.9997 55.4027 28.5957 56 29.333 56C30.0703 56 30.6663 55.4027 30.6663 54.6667V53.3333H43.9997V54.6667C43.9997 55.4027 44.5957 56 45.333 56C46.0703 56 46.6663 55.4027 46.6663 54.6667V53.1453C51.9637 52.196 55.9997 47.5653 55.9997 42Z" fill="white"/>
</g>
<defs>
<clipPath id="clip0_578_3976">
<rect width="32" height="32" fill="white" transform="translate(24 24)"/>
</clipPath>
</defs>
</svg>
