<svg width="22" height="22" viewBox="0 0 22 22" fill="none" xmlns="http://www.w3.org/2000/svg">
<path d="M20.1667 5.24722V1.83355C20.1667 1.32755 19.7569 0.916885 19.25 0.916885C18.7431 0.916885 18.3333 1.32755 18.3333 1.83355V4.00239L13.5639 0.783969C12.0065 -0.266531 9.9935 -0.266531 8.43608 0.783969L2.01942 5.1143C0.755333 5.96772 0 7.38764 0 8.91389V17.4169C0 19.9441 2.05608 22.0002 4.58333 22.0002H6.41667C6.92358 22.0002 7.33333 21.5896 7.33333 21.0836V12.8336C7.33333 12.3285 7.744 11.9169 8.25 11.9169H13.75C14.256 11.9169 14.6667 12.3285 14.6667 12.8336V21.0836C14.6667 21.5896 15.0764 22.0002 15.5833 22.0002H17.4167C19.9439 22.0002 22 19.9441 22 17.4169V8.91389C22 7.46464 21.318 6.11072 20.1667 5.24722Z" fill="white"/>
</svg>
