<svg width="22" height="22" viewBox="0 0 22 22" fill="none" xmlns="http://www.w3.org/2000/svg">
<path d="M22.0001 12.375C22.0001 8.07858 18.5048 4.58333 14.2084 4.58333H11.9167C11.9167 3.38983 11.1477 2.3815 10.0834 2.002V0.916667C10.0834 0.410667 9.67367 0 9.16675 0C8.65983 0 8.25008 0.410667 8.25008 0.916667V2.002C7.18583 2.3815 6.41675 3.38983 6.41675 4.58333V11.9167C6.41675 12.4227 6.8265 12.8333 7.33342 12.8333H11.0001C11.507 12.8333 11.9167 12.4227 11.9167 11.9167V6.41667H14.2084C17.4937 6.41667 20.1667 9.08967 20.1667 12.375C20.1667 15.6603 17.4937 18.3333 14.2084 18.3333H10.0834V16.5H13.7501C14.257 16.5 14.6667 16.0893 14.6667 15.5833C14.6667 15.0773 14.257 14.6667 13.7501 14.6667H4.58341C4.0765 14.6667 3.66675 15.0773 3.66675 15.5833C3.66675 16.0893 4.0765 16.5 4.58341 16.5H8.25008V18.3333H1.83341C1.3265 18.3333 0.916748 18.744 0.916748 19.25C0.916748 19.756 1.3265 20.1667 1.83341 20.1667H2.75008V21.0833C2.75008 21.5893 3.15983 22 3.66675 22C4.17366 22 4.58341 21.5893 4.58341 21.0833V20.1667H13.7501V21.0833C13.7501 21.5893 14.1598 22 14.6667 22C15.1737 22 15.5834 21.5893 15.5834 21.0833V20.0374C19.2253 19.3848 22.0001 16.2012 22.0001 12.375Z" fill="white"/>
</svg>
