<svg width="18" height="21" viewBox="0 0 18 21" fill="none" xmlns="http://www.w3.org/2000/svg">
<path d="M17.3365 4.24843C17.3374 3.5276 16.899 2.90676 16.2199 2.66676L10.8324 0.76593C9.67736 0.356763 8.4032 0.35593 7.24736 0.760096L1.79403 2.66843C1.11236 2.9076 0.672363 3.5276 0.672363 4.2501C0.672363 4.97176 1.1132 5.59176 1.79486 5.8301L3.99986 6.59926V8.0001C3.99986 10.7576 6.24236 13.0001 8.99986 13.0001C11.7574 13.0001 13.9999 10.7576 13.9999 8.0001V6.59843L15.6665 6.01676V9.66593C15.6665 10.1268 16.0399 10.4993 16.4999 10.4993C16.9599 10.4993 17.3332 10.1268 17.3332 9.66593C17.3332 9.66593 17.3365 4.25593 17.3365 4.24843ZM12.3332 8.0001C12.3332 9.83843 10.8382 11.3334 8.99986 11.3334C7.16153 11.3334 5.66653 9.83843 5.66653 8.0001V7.1801L7.2182 7.72176C7.79236 7.92176 8.3957 8.02176 8.99903 8.02176C9.60236 8.02176 10.2057 7.92176 10.7807 7.72176L12.3332 7.1801V8.0001ZM10.2315 6.1476C9.43653 6.42426 8.56153 6.42426 7.76653 6.1476L2.34403 4.24176L7.79736 2.33426C8.59903 2.05343 9.47986 2.05593 10.2774 2.3376L15.664 4.2526L10.2315 6.1476ZM15.9374 19.4984C16.0299 19.9493 15.7407 20.3901 15.2899 20.4834C15.2332 20.4951 15.1765 20.5009 15.1207 20.5009C14.734 20.5009 14.3865 20.2301 14.3049 19.8359C14.0082 18.3976 13.1165 17.1226 11.8582 16.3393L9.63986 18.9676C9.3232 19.3468 8.67653 19.3468 8.35986 18.9676L6.16736 16.3376C4.8832 17.1226 3.99153 18.3976 3.69486 19.8359C3.60236 20.2868 3.1607 20.5734 2.70986 20.4834C2.25903 20.3901 1.96903 19.9493 2.06236 19.4984C2.45153 17.6143 3.61736 15.9476 5.25986 14.9251C5.9732 14.4801 6.9132 14.6293 7.44736 15.2693L8.99986 17.1318L10.5515 15.2693C11.0849 14.6284 12.0257 14.4793 12.7382 14.9234C14.3832 15.9476 15.5482 17.6151 15.9374 19.4984Z" fill="#81909F"/>
</svg>
